<?xml version="1.0" encoding="UTF-8" standalone="no"?>
<!-- Created with Inkscape (http://www.inkscape.org/) -->

<svg
   version="1.1"
   id="svg1"
   width="18.090897"
   height="48.715576"
   viewBox="0 0 18.090896 48.715576"
   xmlns="http://www.w3.org/2000/svg"
   xmlns:svg="http://www.w3.org/2000/svg">
  <defs
     id="defs1" />
  <g
     id="g1"
     transform="translate(-139.12827,-98.64444)">
    <path
       style="fill:#000000"
       d="m 151.66553,144.20001 c -5.32919,-5.4136 -6.78795,-7.25818 -8.60736,-10.88384 -2.02657,-4.03848 -2.80397,-7.84633 -2.80025,-13.71617 0.003,-4.79927 0.55397,-8.10652 2.05791,-12.35374 l 0.55462,-1.56626 -0.59522,0.71488 c -1.26006,1.51336 -1.73848,1.92512 -2.23681,1.92512 -0.52904,0 -0.74574,-0.19585 -0.8906,-0.80494 -0.29052,-1.22147 2.69945,-5.0005 6.08503,-7.690899 1.49587,-1.188713 1.881,-1.357409 2.369,-1.037664 0.34467,0.22584 0.36172,0.349115 0.43767,3.164253 0.0842,3.12264 0.29771,4.39551 1.00561,5.99619 0.42237,0.95504 0.50676,1.93632 0.21533,2.50358 -0.47827,0.93091 -1.48877,1.65093 -2.06175,1.46907 -0.38414,-0.12192 -1.06029,-1.69477 -1.53076,-3.56084 -0.21615,-0.85731 -0.41774,-1.63075 -0.44798,-1.71875 -0.0979,-0.28475 -1.20691,3.4322 -1.54169,5.16699 -0.52057,2.69755 -0.72177,6.25027 -0.50498,8.917 0.39877,4.9054 1.441,8.25561 3.70474,11.90882 1.39732,2.25498 2.6357,3.71758 6.5329,7.71577 1.93147,1.98151 3.59916,3.76607 3.706,3.96569 0.48069,0.89818 -0.83365,3.04574 -1.86403,3.04574 -0.40777,0 -0.92616,-0.45664 -3.58738,-3.16 z"
       id="path21" />
  </g>
</svg>
