<?xml version="1.0" encoding="UTF-8" standalone="no"?>
<!-- Created with Inkscape (http://www.inkscape.org/) -->

<svg
   version="1.1"
   id="svg1"
   width="31.193449"
   height="10.375214"
   viewBox="0 0 31.193449 10.375214"
   xmlns="http://www.w3.org/2000/svg"
   xmlns:svg="http://www.w3.org/2000/svg">
  <defs
     id="defs1" />
  <g
     id="g1"
     transform="translate(-25.92,-139.19974)">
    <path
       style="fill:#000000"
       d="m 38.497436,149.42343 c -3.55497,-0.5188 -7.040552,-2.0637 -9.684588,-4.29247 -1.151868,-0.97095 -2.892847,-3.02177 -2.892847,-3.40768 0,-0.16934 0.210462,-0.51835 0.467692,-0.77558 0.359265,-0.35927 0.61441,-0.46769 1.100543,-0.46769 0.578087,0 0.691565,0.0761 1.311368,0.87948 2.718244,3.52335 7.202303,5.9154 11.822586,6.30684 1.881598,0.15942 2.692447,0.11606 4.56806,-0.24428 1.911927,-0.36732 4.326075,-1.45574 5.609752,-2.52916 l 0.48,-0.40138 -0.568,-0.006 c -0.700275,-0.007 -0.952,-0.24168 -0.952,-0.88717 0,-0.67622 0.196392,-0.88339 1.68,-1.77214 0.704,-0.42173 1.91788,-1.1852 2.697511,-1.69661 0.77963,-0.51141 1.592903,-0.92983 1.807272,-0.92983 0.61055,0 1.17643,0.67442 1.168583,1.39272 -0.01158,1.05957 -0.428915,5.2355 -0.552984,5.53319 -0.148926,0.35734 -0.896555,0.75409 -1.421008,0.75409 -0.659261,0 -0.899374,-0.39294 -0.899374,-1.47181 V 144.439 l -0.704029,0.64895 c -2.464542,2.27174 -5.889858,3.84568 -9.445465,4.34022 -1.422039,0.19779 -4.220687,0.19529 -5.593072,-0.005 z"
       id="path19" />
  </g>
</svg>
