<?xml version="1.0" encoding="UTF-8" standalone="no"?>
<!-- Created with Inkscape (http://www.inkscape.org/) -->

<svg
   version="1.1"
   id="svg1"
   width="41.537537"
   height="24.776978"
   viewBox="0 0 41.537536 24.776977"
   xmlns="http://www.w3.org/2000/svg"
   xmlns:svg="http://www.w3.org/2000/svg">
  <defs
     id="defs1" />
  <g
     id="g1"
     transform="translate(-80.683664,-123.03834)">
    <path
       style="fill:#000000"
       d="m 93.840004,147.60355 c -3.544078,-0.65683 -8.005539,-3.17524 -11.040001,-6.23186 -1.772737,-1.78568 -2.401513,-2.72124 -1.999645,-2.97529 0.397125,-0.25105 1.263344,-0.1802 1.511323,0.12361 0.1257,0.154 0.557911,0.69026 0.960469,1.1917 2.397069,2.98587 7.571404,6.04361 11.327854,6.69412 3.322562,0.57538 6.273326,-1.44265 6.980096,-4.7737 0.25635,-1.20816 0.22707,-1.85353 -0.22157,-4.88447 -0.4588,-3.09953 -0.4826,-3.91886 -0.15885,-5.46765 0.76216,-3.64617 4.13999,-6.95767 8.15394,-7.99384 4.21363,-1.08771 8.22671,1.44886 10.67672,6.74849 l 0.50176,1.08535 0.20648,-1.04 c 0.11357,-0.572 0.20985,-1.20035 0.21396,-1.39632 0.004,-0.1979 0.18565,-0.47306 0.40827,-0.61892 0.3381,-0.22154 0.44129,-0.22901 0.65964,-0.0478 0.21094,0.17507 0.24033,0.40801 0.15883,1.25893 -0.13451,1.40431 -0.79682,4.58091 -1.11006,5.32411 -0.30964,0.73466 -0.82512,0.80218 -1.40133,0.18355 -0.76348,-0.81969 -2.78349,-2.34388 -3.65774,-2.75993 -0.48958,-0.233 -0.94304,-0.49562 -1.0077,-0.58362 -0.22463,-0.30576 -0.1206,-0.99208 0.19347,-1.27631 0.27706,-0.25073 0.38038,-0.26054 0.84,-0.0797 0.28825,0.1134 1.04938,0.54998 1.6914,0.97017 1.30705,0.85544 1.30206,0.86519 0.48709,-0.95121 -1.37612,-3.06712 -3.53636,-5.16709 -5.78268,-5.62136 -3.89387,-0.78744 -8.83312,3.14694 -9.5564,7.61222 -0.19363,1.19544 -0.13545,2.09277 0.33629,5.18619 0.16775,1.1 0.3049,2.468 0.30479,3.04 -6.9e-4,3.50165 -2.36888,6.60212 -5.614291,7.35031 -0.938816,0.21643 -2.689305,0.18766 -4.062115,-0.0668 z"
       id="path20" />
  </g>
</svg>
