<?xml version="1.0" encoding="UTF-8" standalone="no"?>
<!-- Created with Inkscape (http://www.inkscape.org/) -->

<svg
   version="1.1"
   id="svg1"
   width="50.986256"
   height="39.013695"
   viewBox="0 0 50.986255 39.013694"
   xmlns="http://www.w3.org/2000/svg"
   xmlns:svg="http://www.w3.org/2000/svg">
  <defs
     id="defs1" />
  <g
     id="g1"
     transform="translate(-21.311861,-83.522638)">
    <path
       style="fill:#000000"
       d="m 64.293407,121.77346 c -2.693612,-1.80555 -7.348015,-6.21898 -8.755809,-8.30249 C 54.752191,112.30858 54.819028,112 55.856205,112 c 0.46776,0 1.233487,0.329 3.165405,1.36 1.401612,0.748 2.609137,1.36016 2.683389,1.36034 0.282539,7e-4 -0.108217,-5.1863 -0.608723,-8.08034 -0.665808,-3.84985 -1.797914,-6.866606 -3.570803,-9.515223 -2.436104,-3.639431 -6.017608,-6.313675 -9.678539,-7.22679 -1.753641,-0.437396 -4.873419,-0.358085 -6.698292,0.170283 -2.551115,0.738642 -5.06604,2.335459 -7.209537,4.577595 -3.82275,3.998667 -5.805378,8.941375 -5.837979,14.554135 -0.01728,2.97452 0.534527,5.08624 2.310693,8.84291 l 0.928068,1.9629 -0.349943,0.21926 c -0.192468,0.1206 -0.601943,0.29796 -0.909943,0.39414 -0.531405,0.16594 -4.751667,0.81961 -5.296794,0.82042 -0.166798,2.4e-4 -0.485316,-0.49147 -0.908852,-1.40305 -1.36778,-2.94386 -2.16958,-6.06274 -2.466879,-9.59576 -0.599909,-7.12916 1.623014,-13.318205 6.672525,-18.577597 3.57594,-3.724573 7.687253,-6.19336 12.560001,-7.542108 2.883696,-0.79819 6.644404,-1.019793 9.6,-0.565689 9.490338,1.458117 15.196122,7.918912 17.101626,19.364574 0.282887,1.6992 0.397497,2.72518 0.754469,6.75389 l 0.08807,0.99388 1.371042,-1.10911 c 1.449268,-1.17238 2.339822,-1.60763 2.651539,-1.29592 0.129707,0.12971 0.122171,0.44563 -0.02808,1.17727 -0.28499,1.38773 -0.969623,2.96729 -2.210933,5.10096 -1.776961,3.05441 -2.724345,5.03079 -3.027082,6.31493 -0.234358,0.99409 -0.356125,1.24354 -0.66422,1.36067 -0.60626,0.2305 -0.74858,0.18435 -1.983019,-0.64311 z M 65.762662,120.08 c 0.273478,-0.86941 0.838347,-1.96873 2.463442,-4.79424 1.231421,-2.14104 2.458293,-4.81469 2.287647,-4.98534 -0.06157,-0.0616 -1.008045,0.93278 -2.206223,2.31783 -0.441415,0.51025 -0.68603,0.66175 -1.068487,0.66175 -0.480826,0 -0.498634,-0.0257 -0.581625,-0.84 -0.04709,-0.462 -0.12957,-1.73848 -0.183295,-2.83663 C 65.81903,96.213095 61.270814,88.260219 52.612916,85.366078 48.27453,83.915853 43.151184,84.026824 38.81973,85.664837 c -6.783186,2.565177 -12.622961,8.513394 -14.806746,15.081703 -0.735358,2.21178 -0.980509,3.62307 -1.08277,6.23329 -0.140223,3.57921 0.311484,6.59132 1.534552,10.23283 0.513978,1.5303 1.240574,3.22178 1.425564,3.31866 0.125707,0.0658 3.171583,-0.31479 3.486676,-0.4357 0.15261,-0.0586 0.01198,-0.5 -0.524954,-1.6478 -1.742538,-3.72504 -2.314866,-5.96952 -2.302843,-9.03098 0.02177,-5.54281 2.144552,-10.832577 5.919534,-14.750899 6.189886,-6.42492 14.703413,-7.798111 21.240319,-3.425961 4.566516,3.054272 7.625723,8.014607 8.856314,14.36002 0.605247,3.1209 1.022916,9.85214 0.63995,10.31359 -0.371727,0.4479 -1.225338,0.28009 -3.009795,-0.59171 -0.943541,-0.46096 -1.782925,-0.86743 -1.865297,-0.90325 -0.424496,-0.18462 1.284717,1.60876 3.0461,3.19609 2.388229,2.15224 3.940521,3.37664 4.081926,3.2197 0.0567,-0.0629 0.193678,-0.40242 0.304402,-0.75442 z"
       id="path23" />
  </g>
</svg>
