<?xml version="1.0" encoding="UTF-8" standalone="no"?>
<!-- Created with Inkscape (http://www.inkscape.org/) -->

<svg
   version="1.1"
   id="svg1"
   width="73.494598"
   height="20.376373"
   viewBox="0 0 73.494598 20.376373"
   xmlns="http://www.w3.org/2000/svg"
   xmlns:svg="http://www.w3.org/2000/svg">
  <defs
     id="defs1" />
  <g
     id="g1"
     transform="translate(-93.705414,-161.44171)">
    <g
       id="g44">
      <path
         style="fill:#000000"
         d="m 136.14673,163.7734 c -0.12764,-0.12764 -4.77727,-0.71691 -7.10672,-0.90066 -2.07524,-0.16371 -2.27237,-0.20745 -2.68,-0.59465 -0.68635,-0.65195 -0.57938,-0.83834 0.48,-0.83637 1.13696,0.002 4.8075,0.38157 7.15708,0.73988 1.53212,0.23365 1.81546,0.32634 2.21308,0.72395 0.43974,0.43975 0.50414,0.77636 0.16984,0.88779 -0.088,0.0293 -0.19298,0.0204 -0.23328,-0.0199 z"
         id="path17" />
      <path
         style="fill:#000000"
         d="m 108.81162,165.17843 c -0.18239,-0.23187 -0.33162,-0.48221 -0.33162,-0.55631 0,-0.27367 0.7951,-0.63828 2.89093,-1.3257 3.34645,-1.09762 7.90546,-1.93168 8.66558,-1.58535 0.36209,0.16498 0.88926,0.9365 0.74112,1.08464 -0.0419,0.0419 -0.8289,0.18186 -1.74889,0.311 -3.162,0.44386 -5.85823,1.13933 -8.18391,2.11095 -1.18479,0.49498 -1.6196,0.48659 -2.03321,-0.0392 z"
         id="path16" />
      <path
         style="fill:#000000"
         d="m 150.34895,168.40478 c -1.85728,-0.91118 -4.9692,-2.17001 -7.10911,-2.87577 -1.25983,-0.4155 -1.79983,-0.81292 -1.79983,-1.3246 0,-0.36683 0.736,-0.21778 2.98353,0.6042 3.95072,1.44488 7.93718,3.28976 8.1161,3.75603 0.35976,0.9375 -0.009,0.9106 -2.19069,-0.15986 z"
         id="path15" />
      <path
         style="fill:#000000"
         d="m 165.04001,177.32499 c -0.792,-0.586 -2.664,-1.87414 -4.16,-2.86254 -4.09324,-2.70437 -3.92,-2.57087 -3.92,-3.02092 0,-0.22084 0.0861,-0.40152 0.19129,-0.40152 0.28162,0 3.17964,1.85369 6.35095,4.06233 3.05011,2.12423 3.69776,2.65699 3.69776,3.04186 0,0.51249 -0.73895,0.23223 -2.16,-0.81921 z"
         id="path13" />
      <path
         style="fill:#000000"
         d="m 97.361015,181.57222 c -0.473525,-0.37248 -0.704825,-0.85488 -1.789488,-3.73221 -0.398079,-1.056 -1.001472,-2.43305 -1.340873,-3.06012 -0.339401,-0.62706 -0.572143,-1.18506 -0.517205,-1.24 0.572462,-0.57246 1.831717,1.02534 2.750233,3.48963 0.194652,0.52223 0.397732,1.02041 0.451288,1.10706 0.05356,0.0867 0.333124,-0.54603 0.621262,-1.40598 0.657679,-1.96283 1.413143,-3.56049 2.371412,-5.01505 0.868096,-1.31769 2.984486,-3.78515 3.469016,-4.04446 0.45975,-0.24605 1.0125,-0.0736 1.33331,0.41606 l 0.26923,0.4109 -1.34024,1.40837 c -1.48287,1.55824 -2.53295,3.05856 -3.50718,5.01093 -0.685819,1.37438 -1.463569,3.3242 -1.365209,3.42256 0.03253,0.0325 0.47292,-0.37161 0.978634,-0.8981 0.916835,-0.95451 0.920815,-0.95657 1.384825,-0.71662 0.63482,0.32828 0.75703,0.90235 0.31279,1.46929 -0.68816,0.87824 -3.07825,3.41323 -3.360595,3.56434 -0.214912,0.11502 -0.39798,0.0677 -0.72121,-0.1866 z"
         id="path11" />
    </g>
  </g>
</svg>
