<?xml version="1.0" encoding="UTF-8" standalone="no"?>
<!-- Created with Inkscape (http://www.inkscape.org/) -->

<svg
   version="1.1"
   id="svg1"
   width="41.895081"
   height="33.902328"
   viewBox="0 0 41.89508 33.902328"
   xmlns="http://www.w3.org/2000/svg"
   xmlns:svg="http://www.w3.org/2000/svg">
  <defs
     id="defs1" />
  <g
     id="g1"
     transform="translate(-80.480028,-71.474901)">
    <path
       style="fill:#000000"
       d="m 99.862389,105.27802 c -2.858321,-0.4002 -6.705199,-1.70162 -10.342385,-3.49888 -1.056,-0.52181 -1.932878,-0.9367 -1.948617,-0.92199 -0.01574,0.0147 0.192967,0.66037 0.46379,1.43478 l 0.492406,1.40803 -0.320975,0.42991 c -0.665149,0.8909 -2.234005,1.05669 -2.929989,0.30964 -0.177166,-0.19016 -0.400357,-0.63685 -0.495979,-0.99263 -0.09562,-0.35578 -0.595627,-1.69088 -1.111122,-2.96688 -1.494021,-3.698135 -1.568507,-4.471685 -0.48456,-5.032216 0.658759,-0.340657 5.45556,-0.42888 6.20132,-0.114054 0.700906,0.29589 0.960303,0.956067 0.628086,1.598504 -0.137968,0.266801 -0.395641,0.531046 -0.572606,0.587213 -0.176965,0.05617 -0.321754,0.169979 -0.321754,0.252917 0,0.234701 5.6661,2.947086 7.318046,3.503176 2.602762,0.87616 4.07418,1.14104 6.84195,1.23167 2.21056,0.0724 2.78682,0.037 4.22167,-0.25913 3.34455,-0.69031 5.93964,-2.06015 8.17833,-4.317031 1.51216,-1.524435 2.22025,-2.611765 2.83767,-4.357458 0.57519,-1.626292 0.60766,-4.257611 0.0754,-6.109906 -1.39463,-4.853235 -5.76922,-9.679433 -10.74474,-11.853981 -2.19555,-0.959563 -3.72629,-1.262571 -6.32831,-1.252683 -3.110225,0.01182 -5.448782,0.541144 -8.385644,1.898057 -2.870289,1.326155 -6.724303,4.416911 -9.045505,7.254111 -0.979622,1.197389 -1.63462,1.558434 -2.487452,1.371121 -0.473718,-0.104046 -1.121396,-0.747714 -1.121396,-1.114453 0,-0.661944 2.907952,-3.918356 5.265194,-5.896122 3.686382,-3.092939 8.184075,-5.306449 12.414807,-6.109867 1.964586,-0.373075 5.613616,-0.381126 7.499836,-0.01655 2.0495,0.396139 3.66466,0.942534 5.40426,1.828219 2.0243,1.030636 3.42065,2.040709 5.23426,3.786303 4.25615,4.096533 6.34432,8.704861 6.04928,13.349983 -0.2283,3.59427 -1.59495,6.333433 -4.58544,9.190523 -3.74383,3.576844 -8.36735,5.352444 -14.2422,5.469534 -1.452,0.0289 -3.09792,-0.0115 -3.657611,-0.0899 z"
       id="path25" />
  </g>
</svg>
