<?xml version="1.0" encoding="UTF-8" standalone="no"?>
<!-- Created with Inkscape (http://www.inkscape.org/) -->

<svg
   version="1.1"
   id="svg1"
   width="56.513153"
   height="9.0122528"
   viewBox="0 0 56.513153 9.0122527"
   xmlns="http://www.w3.org/2000/svg"
   xmlns:svg="http://www.w3.org/2000/svg">
  <defs
     id="defs1" />
  <g
     id="g1"
     transform="translate(-22.716416,-170.1283)">
    <path
       style="fill:#000000"
       d="m 66.782827,178.98468 c -1.809733,-0.46191 -2.800214,-1.18859 -4.824684,-3.53974 -1.879422,-2.18269 -2.350408,-2.53936 -3.333581,-2.5245 -1.131017,0.0171 -2.616845,0.82227 -3.543577,1.92027 -2.346736,2.78042 -2.890526,3.15739 -4.520983,3.13409 -1.740565,-0.0249 -2.82037,-0.58202 -5.52,-2.8482 -1.651539,-1.38637 -3.363195,-2.32829 -4.221497,-2.32308 -0.907474,0.006 -1.717409,0.47243 -3.698504,2.13214 -1.012,0.84783 -2.272,1.77614 -2.8,2.06293 -0.940033,0.51057 -1.001598,0.52132 -2.96,0.51683 -1.850388,-0.004 -2.090434,-0.041 -3.208913,-0.49081 -2.276958,-0.9158 -4.116177,-2.4273 -4.897968,-4.02522 -0.425578,-0.86985 -0.658778,-2.20114 -0.471197,-2.68997 0.09362,-0.24396 0.13473,-0.24303 0.539708,0.0122 0.662631,0.41767 0.838218,0.71639 0.839933,1.42893 0.0021,0.86925 0.613002,2.13345 1.33899,2.77088 1.340912,1.17734 3.59406,1.89768 5.453971,1.74366 1.504564,-0.12459 2.594005,-0.70284 4.885476,-2.59311 2.234259,-1.84307 2.822925,-2.15254 4.090516,-2.15045 1.451843,0.002 2.668839,0.6414 5.528763,2.90301 2.585009,2.0442 4.048714,2.53922 5.571331,1.88421 0.651094,-0.28009 1.081161,-0.65471 2.014396,-1.75468 0.65261,-0.76921 1.414074,-1.59 1.692144,-1.82398 1.313814,-1.1055 2.856176,-1.45063 4.315961,-0.96577 0.902054,0.29962 1.41544,0.76036 4.226891,3.79344 1.625399,1.75353 2.487466,2.20016 4.24,2.19673 1.499113,-0.003 2.367085,-0.19966 3.635408,-0.82396 0.986371,-0.48552 2.603795,-1.90659 2.937165,-2.58059 0.09521,-0.19248 -0.154708,-0.008 -0.555366,0.41003 -0.400659,0.418 -0.870354,0.76 -1.043766,0.76 -0.367514,0 -0.81356,-0.56806 -0.813173,-1.0356 3.67e-4,-0.44413 2.951585,-3.89618 3.434537,-4.0174 0.964348,-0.24203 1.531189,0.407 3.136848,3.5917 1.228633,2.43691 1.262872,2.7413 0.308347,2.7413 -0.55258,0 -0.607711,-0.0692 -1.529093,-1.92 l -0.75671,-1.52 -0.220322,0.75445 c -0.564664,1.93358 -2.590179,3.86012 -4.847124,4.61027 -1.284554,0.42695 -3.304584,0.54565 -4.423927,0.25995 z"
       id="path12" />
  </g>
</svg>
