<?xml version="1.0" encoding="UTF-8" standalone="no"?>
<!-- Created with Inkscape (http://www.inkscape.org/) -->

<svg
   version="1.1"
   id="svg1"
   width="58.895351"
   height="49.470188"
   viewBox="0 0 58.895351 49.470188"
   xmlns="http://www.w3.org/2000/svg"
   xmlns:svg="http://www.w3.org/2000/svg">
  <defs
     id="defs1" />
  <g
     id="g1"
     transform="translate(-21.600001,-19.707195)">
    <path
       style="fill:#000000"
       d="m 29.194091,68.39065 c -0.687536,-0.493284 -1.976844,-1.529576 -2.86513,-2.302871 -1.844146,-1.605416 -3.110747,-2.526687 -4.066045,-2.957466 -0.364603,-0.164413 -0.662915,-0.358149 -0.662915,-0.430525 0,-0.190305 0.885902,-0.619809 1.278428,-0.619809 0.651452,0 2.44053,1.070553 4.001572,2.39447 0.484,0.41048 0.962188,0.795069 1.062639,0.854642 0.100452,0.05957 -0.167551,-0.71802 -0.595562,-1.727986 -2.214148,-5.224661 -3.2533,-10.139582 -3.24777,-15.361126 0.0068,-6.424013 1.550692,-11.717712 4.856848,-16.653189 2.683487,-4.005948 5.875436,-6.83394 10.003846,-8.863172 4.694315,-2.307392 8.943625,-3.171667 14.72,-2.993927 3.48181,0.107136 5.680152,0.489474 8.971959,1.560414 9.617748,3.128991 16.074677,10.890682 17.578328,21.130408 1.046983,7.129865 -1.055025,13.858342 -5.467758,17.502156 -3.37791,2.789308 -7.457496,4.069275 -12.344332,3.873026 -8.21019,-0.329711 -16.108527,-4.826837 -19.181258,-10.921355 -0.918468,-1.821709 -1.235993,-3.155597 -1.236491,-5.194361 -4.55e-4,-1.867866 0.155225,-2.725322 0.769817,-4.24 1.299509,-3.202674 4.12587,-6.059681 7.092217,-7.169117 1.717944,-0.642523 2.259895,-0.756472 4.057518,-0.85312 4.663643,-0.250738 8.02196,1.896924 9.031749,5.775852 0.294529,1.131382 0.326649,3.765348 0.06952,5.700944 -0.231085,1.739542 -0.324437,1.906051 -1.066899,1.902991 -1.002807,-0.0041 -1.02542,-0.0594 -0.755932,-1.847375 0.336249,-2.230917 0.310722,-4.38857 -0.06951,-5.875257 -0.397379,-1.553738 -0.668068,-2.065132 -1.633345,-3.08577 -1.496231,-1.582044 -3.930225,-2.269215 -6.349472,-1.792598 -5.002415,0.98553 -8.984719,5.645559 -9.412565,11.014436 -0.340625,4.274368 2.394332,8.92424 7.078333,12.034322 5.526187,3.669275 11.70591,4.834998 16.948119,3.197038 5.854383,-1.829237 9.642164,-6.463414 10.737951,-13.137393 0.345312,-2.103153 0.220889,-6.345939 -0.250642,-8.546762 -0.718248,-3.352354 -2.092666,-6.641482 -3.958747,-9.473703 -1.376781,-2.089592 -4.513184,-5.246543 -6.512316,-6.554979 -8.48024,-5.550338 -20.065031,-5.88034 -28.657331,-0.816327 -9.779526,5.763724 -14.795289,17.205595 -12.956656,29.556498 0.473327,3.179551 1.552378,6.940534 2.906454,10.130321 l 0.611285,1.44 0.08,-2.31566 c 0.07856,-2.273982 0.0872,-2.319295 0.48,-2.517641 0.22,-0.11109 0.550733,-0.203044 0.734962,-0.204341 0.322142,-0.0023 0.338878,0.09715 0.437258,2.597641 0.05626,1.430001 0.211529,3.313727 0.345038,4.18606 0.310644,2.02972 0.318334,1.946138 -0.197258,2.143802 -1.032085,0.395672 -1.077254,0.385378 -2.36591,-0.539191 z"
       id="path31" />
  </g>
</svg>
