<?xml version="1.0" encoding="UTF-8" standalone="no"?>
<!-- Created with Inkscape (http://www.inkscape.org/) -->

<svg
   version="1.1"
   id="svg1"
   width="27.637207"
   height="55.80294"
   viewBox="0 0 27.637207 55.80294"
   xmlns="http://www.w3.org/2000/svg"
   xmlns:svg="http://www.w3.org/2000/svg">
  <defs
     id="defs1" />
  <g
     id="g1"
     transform="translate(-139.79479,-22.579094)">
    <path
       style="fill:#000000"
       d="m 142.93179,77.240003 c -2.46778,-4.833533 -3.13831,-6.962456 -3.13701,-9.96 0.002,-3.525555 1.2007,-6.806902 3.52975,-9.658596 2.1117,-2.585574 4.58849,-4.187806 9.45068,-6.113636 5.6821,-2.250585 7.99084,-3.58139 10.35079,-5.966415 2.30069,-2.325138 3.27824,-4.696954 3.06309,-7.431937 -0.26644,-3.387012 -2.45108,-7.099931 -5.70908,-9.702901 -1.21006,-0.966768 -3.23591,-2.343945 -3.32173,-2.258119 -0.0325,0.03248 0.24046,0.762811 0.60656,1.622947 0.54338,1.276677 0.64056,1.651249 0.52919,2.039593 -0.18202,0.63467 -0.6075,0.905007 -0.92284,0.58635 -0.32968,-0.333148 -2.49118,-5.815023 -2.49118,-6.317991 0,-0.707968 0.61135,-1.138527 1.93386,-1.361968 2.58094,-0.436055 6.81304,0.218969 7.32519,1.133758 0.22774,0.406781 0.17918,0.949543 -0.12718,1.42143 -0.13136,0.202337 -0.26134,0.198734 -1.00141,-0.02776 -1.52619,-0.467078 -4.45335,-0.889659 -4.44786,-0.642119 0.001,0.06455 0.52071,0.477362 1.15396,0.917362 1.49813,1.040946 4.21318,3.72401 5.08084,5.020987 2.53274,3.785944 3.31118,8.381346 2.02159,11.934128 -1.22797,3.383021 -4.51436,6.606935 -9.05224,8.880154 -0.83972,0.420648 -2.73295,1.241094 -4.2072,1.823212 -4.58787,1.811558 -6.26103,2.762547 -8.3417,4.741237 -2.15725,2.051524 -3.48912,4.31968 -4.0272,6.858278 -0.59561,2.810069 -0.0596,5.293474 2.11129,9.782006 1.22269,2.528019 1.33703,3.022876 0.83751,3.624751 -0.34685,0.417939 -0.62173,0.202904 -1.20767,-0.944751 z"
       id="path26" />
  </g>
</svg>
