<?xml version="1.0" encoding="UTF-8" standalone="no"?>
<!-- Created with Inkscape (http://www.inkscape.org/) -->

<svg
   version="1.1"
   id="svg1"
   width="34.058006"
   height="33.861034"
   viewBox="0 0 34.058006 33.861034"
   xmlns="http://www.w3.org/2000/svg"
   xmlns:svg="http://www.w3.org/2000/svg">
  <defs
     id="defs1" />
  <g
     id="g1"
     transform="translate(-97.603509,-26.086239)">
    <path
       style="fill:#000000"
       d="m 111.36,59.89187 c -3.14946,-0.39898 -6.01139,-1.883399 -8.32307,-4.317 -2.34069,-2.464137 -3.873217,-5.677917 -4.710733,-9.87862 -0.551637,-2.766825 -0.726692,-4.938372 -0.72262,-8.964037 0.0038,-3.798403 0.352581,-9.312366 0.604935,-9.56472 0.08502,-0.08502 0.324889,-0.130489 0.533038,-0.101038 0.362174,0.05124 0.378352,0.108609 0.376081,1.333546 -0.0013,0.704 -0.09875,2.9 -0.216554,4.88 -0.538775,9.055851 0.742239,15.642883 3.908543,20.097908 1.35103,1.900923 3.52531,3.620617 5.67603,4.489334 4.19735,1.695383 7.93365,0.797862 11.5546,-2.775603 1.77619,-1.752896 3.66091,-4.771005 4.69612,-7.520128 0.49245,-1.307779 1.10475,-3.804365 1.34681,-5.49151 0.26075,-1.817437 0.41551,-6.663234 0.31683,-9.920001 l -0.08,-2.64 -0.3703,0.8 c -0.59788,1.291701 -0.98971,2.583738 -0.98971,3.263524 0,0.589602 -0.30796,1.136476 -0.64,1.136476 -0.34276,0 -0.63977,-0.546544 -0.63659,-1.171428 0.003,-0.652944 0.30054,-1.609053 1.491,-4.79651 0.32208,-0.862366 0.58559,-1.729966 0.58559,-1.928 0,-0.198034 0.0864,-0.446462 0.19201,-0.552062 0.28506,-0.285062 0.89508,-0.232467 1.06881,0.09215 0.0836,0.156284 0.81497,1.038284 1.62517,1.96 2.27143,2.584058 3.12195,4.085279 3.00503,5.304044 -0.0451,0.470269 -0.10545,0.531805 -0.52149,0.531805 -0.43379,0 -0.49153,-0.07091 -0.74048,-0.909527 -0.1485,-0.500241 -0.43663,-1.179134 -0.64028,-1.508653 -0.45913,-0.742894 -1.87986,-2.461861 -2.0346,-2.461704 -0.0628,6.3e-5 -0.11416,2.466063 -0.11416,5.48 0,3.559179 -0.0727,6.040686 -0.20744,7.079885 -0.84841,6.544134 -3.88986,12.355233 -8.21413,15.694191 -2.18719,1.688828 -5.41491,2.662159 -7.81844,2.357678 z"
       id="path33" />
  </g>
</svg>
