<?xml version="1.0" encoding="UTF-8" standalone="no"?>
<!-- Created with Inkscape (http://www.inkscape.org/) -->

<svg
   version="1.1"
   id="svg1"
   width="104.4835"
   height="22.098984"
   viewBox="0 0 104.4835 22.098984"
   xmlns="http://www.w3.org/2000/svg"
   xmlns:svg="http://www.w3.org/2000/svg">
  <defs
     id="defs1" />
  <g
     id="g1"
     transform="translate(-180.56522,-84.684516)">
    <path
       style="fill:#000000"
       d="m 231.58604,106.72519 c -0.72515,-0.16753 -0.73152,-0.17353 -2.54462,-2.39603 -2.91156,-3.56902 -4.53063,-4.831828 -7.12141,-5.554428 -0.83305,-0.232348 -1.58125,-0.286448 -3.76,-0.271876 -3.03461,0.0203 -4.37284,0.21541 -11.26989,1.643144 -6.38053,1.32082 -7.94471,1.52742 -11.53011,1.52296 -2.60951,-0.003 -3.35833,-0.0596 -4.57661,-0.34421 -5.25095,-1.2269 -8.40621,-4.662193 -9.92855,-10.809714 -0.3324,-1.342295 -0.35818,-1.624819 -0.18119,-1.98561 0.31541,-0.64297 0.97931,-1.046111 1.86249,-1.130974 0.6932,-0.06661 0.85252,-0.02434 1.19352,0.316668 0.23394,0.23394 0.44044,0.679716 0.50919,1.09921 0.19274,1.176016 1.04085,3.681423 1.62629,4.804213 1.96767,3.773712 4.96623,5.411608 9.92018,5.418683 3.02751,0.0043 4.94651,-0.282266 13.30775,-1.987419 7.548,-1.539305 11.35137,-1.698439 15.04275,-0.629395 2.40317,0.695973 3.36115,1.316672 5.80973,3.764248 l 2.18555,2.18466 0.49452,-0.61536 c 1.19979,-1.49299 3.68485,-2.954289 6.04112,-3.552394 1.22387,-0.310664 1.82064,-0.358105 4.45326,-0.35402 3.41722,0.0053 3.83176,0.06243 9.28,1.27888 2.112,0.471554 4.58563,0.933014 5.49695,1.025474 5.40067,0.54792 10.71138,-0.263272 16.42194,-2.508381 2.29574,-0.902572 3.73638,-1.761371 4.88961,-2.914819 1.7492,-1.749534 2.34186,-3.487856 2.15771,-6.328696 -0.16434,-2.535382 -0.1604,-2.612822 0.15053,-2.956398 0.43859,-0.484639 1.57787,-0.858987 2.23757,-0.735227 0.7897,0.148148 1.00916,0.576659 1.20783,2.358305 0.48162,4.319198 -1.05404,7.910126 -4.40551,10.301687 -1.16891,0.834119 -4.30933,2.366986 -6.52105,3.182989 -4.94836,1.82568 -11.28212,2.75824 -16.02102,2.35889 -2.19585,-0.18504 -3.64965,-0.44481 -8.09456,-1.44635 -5.88449,-1.3259 -10.06171,-1.33924 -12.6079,-0.0403 -1.10811,0.56531 -2.10786,1.72747 -2.87144,3.3379 -0.71143,1.50044 -1.00532,1.79957 -1.96066,1.99567 -0.22,0.0452 -0.62229,0.0307 -0.89397,-0.032 z"
       id="path24" />
  </g>
</svg>
