<?xml version="1.0" encoding="UTF-8" standalone="no"?>
<!-- Created with Inkscape (http://www.inkscape.org/) -->

<svg
   version="1.1"
   id="svg1"
   width="273.88306"
   height="4.2938385"
   viewBox="0 0 273.88305 4.2938385"
   xmlns="http://www.w3.org/2000/svg"
   xmlns:svg="http://www.w3.org/2000/svg">
  <defs
     id="defs1" />
  <g
     id="g1"
     transform="translate(-16.66164,-220.42476)">
    <g
       id="g43">
      <path
         style="fill:#000000"
         d="m 31.840001,223.97589 c -5.274689,-0.10897 -5.799161,-0.13648 -10.08,-0.52871 -3.177685,-0.29116 -4.168886,-0.48225 -4.710231,-0.90807 -0.538413,-0.42352 -0.5177,-0.81984 0.06863,-1.3132 0.964013,-0.81117 1.126474,-0.81834 18.0016,-0.79542 20.111878,0.0273 23.489143,0.2086 24.056352,1.29117 0.443311,0.84611 -0.767458,1.6968 -2.943474,2.0681 -1.362155,0.23243 -2.87911,0.27313 -10.472877,0.28102 -4.884,0.005 -11.148001,-0.0376 -13.920001,-0.0949 z"
         id="path9" />
      <path
         style="fill:#000000"
         d="m 208.21002,224.29317 c -2.74471,-0.18428 -4.14441,-0.66581 -4.68049,-1.61018 -0.20523,-0.36152 -0.19948,-0.45334 0.0524,-0.83782 0.42937,-0.6553 1.24307,-0.90698 3.30334,-1.02171 2.65422,-0.14782 32.52978,0.0742 35.62709,0.26477 2.24439,0.13809 2.68469,0.21028 3.28,0.53776 0.7843,0.43146 0.98006,1.01225 0.4905,1.45529 -0.71329,0.64552 -1.99479,0.81068 -6.44289,0.83036 -2.332,0.0103 -5.644,0.10542 -7.36,0.21134 -3.46535,0.2139 -21.71316,0.34186 -24.26999,0.17019 z"
         id="path8" />
      <path
         style="fill:#000000"
         d="m 77.680003,224.40673 c -0.088,-0.0359 -2.104,-0.14494 -4.48,-0.24229 -5.47694,-0.22441 -6.095567,-0.39529 -5.951346,-1.64384 0.148895,-1.289 0.974606,-1.64499 3.446981,-1.48611 2.151324,0.13825 3.131065,0.123 5.624365,-0.0876 3.808133,-0.32162 14.575297,-0.37186 18.640001,-0.087 2.024,0.14186 4.76,0.29957 6.079996,0.35047 1.32,0.0509 2.65857,0.15911 2.9746,0.24045 1.03677,0.26685 1.47914,1.11437 0.93963,1.80024 -0.43787,0.55666 -1.08869,0.70174 -3.67423,0.81903 -1.188,0.0539 -2.807996,0.1303 -3.599996,0.1698 -1.984433,0.099 -19.802096,0.24756 -20.000001,0.1668 z"
         id="path7" />
      <path
         style="fill:#000000"
         d="m 164.48001,224.39073 c -3.80007,-0.23094 -4.6245,-0.37882 -5.39711,-0.96811 -0.91713,-0.69954 -0.62465,-1.23945 1.00826,-1.86124 l 0.94885,-0.36131 14.96,-0.008 c 9.63501,-0.005 15.81427,-0.0729 17.36,-0.19063 2.54511,-0.19386 3.38563,-0.12078 4.20971,0.36602 0.5374,0.31745 0.73889,0.67858 0.58578,1.0499 -0.19618,0.47573 -1.52728,1.26987 -2.51019,1.49758 -2.24933,0.5211 -3.714,0.56894 -11.6453,0.38037 -6.8469,-0.16279 -8.21185,-0.15335 -11.6,0.0802 -2.112,0.14558 -3.984,0.25556 -4.16,0.2444 -0.176,-0.0112 -1.868,-0.11437 -3.76,-0.22935 z"
         id="path6" />
      <path
         style="fill:#000000"
         d="m 113.02533,224.40513 c -3.7667,-0.68396 -3.31094,-2.24787 0.91578,-3.1424 1.71322,-0.36259 3.71308,-0.41695 13.5789,-0.3691 1.54,0.007 4.024,0.0123 5.52,0.0108 4.84677,-0.005 13.4174,0.23432 14.2816,0.39882 0.91055,0.17332 1.7984,0.78858 1.7984,1.24626 0,0.79411 -1.49659,1.18063 -5.63015,1.45407 -1.43542,0.095 -3.86985,0.27737 -5.40985,0.40537 -3.76321,0.31279 -23.32754,0.30984 -25.05468,-0.004 z"
         id="path5" />
      <path
         style="fill:#000000"
         d="m 259.04001,224.47733 c -3.92367,-0.52613 -5.61776,-1.0855 -5.73286,-1.89292 -0.19299,-1.35386 2.73506,-1.97448 9.01286,-1.91032 1.672,0.0171 5.236,-0.0161 7.92,-0.0737 2.684,-0.0576 5.528,-0.039 6.32,0.0413 0.792,0.0803 3.852,0.15574 6.8,0.16758 2.96315,0.0119 5.65967,0.0936 6.03015,0.18265 2.14757,0.51626 1.10315,2.19689 -1.52045,2.44663 -0.58833,0.056 -2.4017,0.2503 -4.0297,0.43177 -2.48642,0.27716 -3.51038,0.31383 -6.4,0.22917 -1.892,-0.0554 -4.556,-0.0274 -5.92,0.0624 -10.43254,0.68634 -9.82805,0.67106 -12.48,0.31545 z"
         id="path4" />
    </g>
  </g>
</svg>
