<?xml version="1.0" encoding="UTF-8" standalone="no"?>
<!-- Created with Inkscape (http://www.inkscape.org/) -->

<svg
   version="1.1"
   id="svg1"
   width="273.91998"
   height="6.1209412"
   viewBox="0 0 273.91998 6.1209411"
   xmlns="http://www.w3.org/2000/svg"
   xmlns:svg="http://www.w3.org/2000/svg">
  <defs
     id="defs1" />
  <g
     id="g1"
     transform="translate(-16.640001,-238.81532)">
    <path
       style="fill:#000000"
       d="m 173.12001,244.77824 c -7.436,-0.0695 -15.76527,-0.20859 -18.50948,-0.30912 -2.81796,-0.10323 -6.36934,-0.13369 -8.16,-0.07 -1.74379,0.062 -8.93052,0.0288 -15.97052,-0.0738 -7.04001,-0.10264 -17.98401,-0.20994 -24.32001,-0.23845 -6.335996,-0.0285 -12.059996,-0.11749 -12.719996,-0.19775 -0.696523,-0.0847 -10.698938,-0.11637 -23.840001,-0.0755 -38.187744,0.11879 -36.528253,0.14539 -45.200002,-0.72441 -1.408,-0.14122 -3.73,-0.28946 -5.16,-0.32942 l -2.6,-0.0727 v -1.12725 -1.12726 l 3.96,0.10809 c 3.487621,0.0952 4.255834,0.0689 6.44,-0.22059 2.945937,-0.39044 4.862185,-0.41977 11.360001,-0.17386 2.684,0.10158 8.696,0.16422 13.36,0.13922 7.851049,-0.0421 8.616471,-0.0219 10.32,0.27161 1.649159,0.28419 2.65315,0.31936 9.680001,0.33914 7.097386,0.02 8.045943,0.0539 10.014202,0.35784 1.974736,0.30498 3.281142,0.35069 14.240001,0.49823 23.217824,0.31258 64.252084,0.68224 67.185804,0.60525 1.628,-0.0427 4.184,-0.22464 5.68,-0.40426 3.77134,-0.45281 8.85967,-0.81774 12.56,-0.90078 1.716,-0.0385 3.984,-0.1836 5.04,-0.32241 3.82032,-0.50218 7.30001,-0.74837 12.56,-0.88863 2.948,-0.0786 5.90549,-0.22119 6.5722,-0.31684 0.80707,-0.11578 5.00472,-0.15899 12.56,-0.12926 10.3764,0.0408 11.62173,0.0173 14.5478,-0.27535 3.71126,-0.37113 5.67061,-0.38552 18.88,-0.13867 5.104,0.0954 10.072,0.14046 11.04,0.10018 0.968,-0.0403 3.308,0.042 5.2,0.18278 4.08974,0.30437 5.22275,0.3155 7.36131,0.0723 1.98431,-0.22564 4.58971,-0.0184 8.55869,0.6808 1.496,0.26354 3.638,0.52178 4.76,0.57387 l 2.04,0.0947 v 1.01499 1.01499 l -4.04,-0.0133 c -2.222,-0.007 -4.688,0.065 -5.48,0.1607 -2.07891,0.25116 -6.29515,0.2189 -8,-0.0612 -1.00832,-0.16567 -2.75901,-0.23981 -5.84,-0.24731 -2.42,-0.006 -5.804,-0.078 -7.52,-0.16034 -7.45264,-0.3574 -10.35083,-0.37397 -13.44046,-0.0769 -2.44144,0.23478 -3.56176,0.26121 -6.39954,0.15101 -3.42335,-0.13294 -8.10997,-0.10689 -8.72,0.0485 -0.176,0.0448 -4.11205,0.10088 -8.74678,0.12456 -4.63473,0.0237 -8.49895,0.0877 -8.58715,0.14219 -0.0882,0.0545 -1.56875,0.16941 -3.29008,0.25531 -1.80665,0.0902 -4.52988,0.36104 -6.44185,0.64076 -1.82168,0.26651 -4.5411,0.55969 -6.04315,0.6515 -1.50204,0.0918 -3.55899,0.27168 -4.57099,0.3997 -1.04833,0.13261 -2.90705,0.21999 -4.32,0.20308 -1.364,-0.0163 -8.564,-0.0865 -16,-0.15601 z"
       id="path3" />
  </g>
</svg>
