<?xml version="1.0" encoding="UTF-8" standalone="no"?>
<!-- Created with Inkscape (http://www.inkscape.org/) -->

<svg
   version="1.1"
   id="svg1"
   width="273.9202"
   height="7.6152954"
   viewBox="0 0 273.92019 7.6152954"
   xmlns="http://www.w3.org/2000/svg"
   xmlns:svg="http://www.w3.org/2000/svg">
  <defs
     id="defs1" />
  <g
     id="g1"
     transform="translate(-16.64,-259.54306)">
    <path
       style="fill:#000000"
       d="m 25.920001,267.09507 c -0.484,-0.0361 -2.73351,-0.24322 -4.998912,-0.46033 -2.265402,-0.2171 -4.155402,-0.39473 -4.2,-0.39473 -0.0446,0 -0.08109,-1.00093 -0.08109,-2.22429 v -2.22429 l 0.92,-0.0914 c 0.506,-0.0503 2.324,-0.20141 4.04,-0.33588 1.716,-0.13447 3.984,-0.32017 5.04,-0.41266 1.056,-0.0925 3.756,-0.19702 6,-0.23229 3.321279,-0.0522 4.362662,-0.12465 5.600001,-0.38957 0.97832,-0.20946 2.12291,-0.32618 3.211818,-0.32754 0.9305,-0.001 2.4425,-0.11731 3.36,-0.25813 1.423922,-0.21855 2.675571,-0.24085 8.548182,-0.15237 3.784,0.057 11.380001,0.17067 16.880001,0.25257 7.789123,0.11597 10.778229,0.21999 13.52,0.47047 2.614132,0.23882 4.79896,0.32207 8.489745,0.32347 4.145427,0.002 5.35294,0.0563 7.28,0.32996 1.356934,0.19269 3.960854,0.38914 6.310254,0.47607 2.2,0.0814 5.08,0.25989 6.4,0.39666 1.32,0.13676 5.28,0.31655 8.8,0.39953 3.52,0.083 7.84001,0.25667 9.60001,0.38598 4.52171,0.33221 6.53047,0.38792 24.2961,0.67374 10.30294,0.16576 18.11111,0.21368 22.4,0.13748 3.62114,-0.0643 8.8879,-0.10082 11.7039,-0.0811 3.48764,0.0244 6.11472,-0.0432 8.24,-0.21227 1.716,-0.13648 4.704,-0.2873 6.64,-0.33516 1.936,-0.0478 4.924,-0.19266 6.64,-0.32179 6.28022,-0.4726 9.8101,-0.57572 19.08829,-0.55763 5.20944,0.0102 9.61571,-0.016 9.79171,-0.0582 1.1951,-0.28628 22.58027,-0.39438 36.32,-0.18359 5.456,0.0837 11.01805,0.15219 12.3601,0.15219 h 2.4401 l -10e-5,2.21151 -1e-4,2.21152 -0.84,-0.0989 c -2.27387,-0.2678 -9.4225,-0.36044 -17.24,-0.22342 -6.95073,0.12183 -8.96608,0.10867 -10.72,-0.07 -2.68009,-0.27303 -34.187,-0.23922 -38.32,0.0411 -4.08617,0.27716 -8.84967,0.35999 -12.56,0.21838 -1.97775,-0.0755 -4.29015,-0.0689 -5.44,0.0154 -1.1,0.0807 -5.78,0.16635 -10.4,0.19034 -12.79068,0.0664 -19.93496,0.17562 -25.04,0.38275 -2.552,0.10355 -6.368,0.17085 -8.48,0.14957 -7.12674,-0.0718 -14.4981,-0.006 -28,0.2508 -3.67448,0.0698 -9.82516,0.0449 -14.96001,-0.0606 -7.97173,-0.16379 -12.74069,-0.35501 -26.479998,-1.06176 -2.64,-0.1358 -6.132001,-0.31268 -7.760001,-0.39307 -1.628,-0.0804 -6.092,-0.10552 -9.92,-0.0559 -3.828,0.0497 -11.496001,0.10084 -17.040001,0.11371 -10.765443,0.025 -11.344168,0.0554 -20.560001,1.07944 -2.828311,0.31428 -8.804574,0.50879 -10.88,0.3541 z"
       id="path2" />
  </g>
</svg>
