<?xml version="1.0" encoding="UTF-8" standalone="no"?>
<!-- Created with Inkscape (http://www.inkscape.org/) -->

<svg
   version="1.1"
   id="svg1"
   width="273.90207"
   height="8.1866455"
   viewBox="0 0 273.90207 8.1866454"
   xmlns="http://www.w3.org/2000/svg"
   xmlns:svg="http://www.w3.org/2000/svg">
  <defs
     id="defs1" />
  <g
     id="g1"
     transform="translate(-16.630951,-195.41289)">
    <path
       style="fill:#000000"
       d="m 135.20001,203.56531 c -1.012,-0.0191 -3.28,-0.14549 -5.04,-0.2809 -1.76,-0.13542 -3.668,-0.27616 -4.24,-0.31275 -0.57201,-0.0366 -23.97201,-0.33403 -52.000007,-0.66095 -44.242499,-0.51606 -51.265822,-0.56615 -53.280002,-0.38001 -1.276,0.11792 -2.68,0.21775 -3.12,0.22185 l -0.8,0.007 -0.04452,-2.10279 -0.04453,-2.10279 1.048145,-0.18252 c 2.04561,-0.35623 6.131089,-0.69455 9.760904,-0.80831 5.085219,-0.15937 8.787675,-0.43794 10.960001,-0.82463 1.497661,-0.26659 2.271645,-0.31281 4.16,-0.24845 4.543105,0.15485 20.73858,0.40834 32.080001,0.50212 11.565537,0.0956 13.210709,0.16426 17.548197,0.73193 2.543027,0.33282 3.025996,0.36768 9.971801,0.71982 6.39718,0.32432 6.90455,0.35532 12.16,0.74303 3.58614,0.26456 6.16629,0.34575 11.36,0.35745 8.2273,0.0185 20.01318,-0.19061 23.04001,-0.40886 1.232,-0.0888 4.724,-0.22852 7.76,-0.31043 7.85197,-0.21184 11.21873,-0.39302 12.96,-0.69743 1.24208,-0.21715 2.41227,-0.25719 6.4,-0.219 4.98446,0.0477 12.76987,-0.20858 15.30718,-0.50395 0.77705,-0.0905 3.27327,-0.30837 5.54715,-0.48425 2.27388,-0.17587 4.20927,-0.36608 4.30085,-0.42269 0.0916,-0.0566 2.15514,-0.11777 4.58567,-0.13593 2.43053,-0.0182 5.24715,-0.11738 6.25915,-0.22048 1.31886,-0.13437 4.94417,-0.1604 12.8,-0.0919 9.9939,0.0871 11.19271,0.12614 13.6,0.44281 2.51438,0.33074 3.24144,0.34749 15.28,0.35188 12.17075,0.004 12.72386,0.0175 14.89896,0.35286 1.24242,0.19154 3.61842,0.46046 5.28,0.5976 1.66157,0.13714 4.42504,0.42443 6.14104,0.63842 4.36712,0.5446 5.97182,0.61216 8.4,0.3537 1.144,-0.12177 2.13631,-0.17179 2.20514,-0.11116 0.0688,0.0606 0.10483,1.00315 0.08,2.09447 l -0.0451,1.98422 -1.90147,-0.0528 c -1.15814,-0.0321 -2.82821,0.0579 -4.2721,0.23019 -2.34436,0.27982 -2.40131,0.27908 -5.13853,-0.0667 -5.18897,-0.6555 -14.1289,-0.8963 -48.73728,-1.31277 -10.83435,-0.13037 -13.39363,-0.11761 -16.32,0.0814 -2.12683,0.14463 -5.45303,0.22549 -8.59062,0.20884 -4.02643,-0.0214 -6.0427,0.0474 -9.44,0.32175 -2.41426,0.195 -7.20678,0.42206 -10.86384,0.5147 -7.56365,0.19161 -9.5071,0.31048 -16.49616,1.00895 l -5.12,0.51169 h -13.28 c -7.304,0 -14.108,-0.0156 -15.12,-0.0347 z"
       id="path10" />
  </g>
</svg>
