<?xml version="1.0" encoding="UTF-8" standalone="no"?>
<!-- Created with Inkscape (http://www.inkscape.org/) -->

<svg
   version="1.1"
   id="svg1"
   width="273.91998"
   height="5.1329651"
   viewBox="0 0 273.91998 5.1329651"
   xmlns="http://www.w3.org/2000/svg"
   xmlns:svg="http://www.w3.org/2000/svg">
  <defs
     id="defs1" />
  <g
     id="g1"
     transform="translate(-16.640001,-285.42462)">
    <path
       style="fill:#000000"
       d="m 29.92661,290.30422 c -0.480365,-0.12911 -1.560365,-0.6039 -2.4,-1.05509 -0.839635,-0.45119 -1.844811,-0.98882 -2.233725,-1.19473 -1.092642,-0.57851 -2.115778,-0.51097 -4.056805,0.26777 -1.70109,0.68248 -3.49778,1.0674 -4.181414,0.89582 -0.366042,-0.0919 -0.414665,-0.185 -0.414665,-0.79419 v -0.69012 l 0.862069,0.0715 c 0.920814,0.0764 1.306336,-0.0192 3.501799,-0.86807 1.597541,-0.61769 2.943786,-0.8118 3.877561,-0.55911 0.352786,0.0955 1.392957,0.61791 2.31149,1.16098 2.037945,1.2049 3.065102,1.58104 4.317492,1.58104 1.210966,0 1.984502,-0.26136 4.556303,-1.53948 2.632262,-1.30817 3.491349,-1.56069 4.983727,-1.46492 1.017298,0.0653 1.423723,0.20196 3.390672,1.14022 1.229155,0.58633 2.641649,1.14775 3.138874,1.24761 1.26632,0.25431 2.679777,-0.10965 4.260014,-1.09694 0.66,-0.41235 1.74,-1.03045 2.4,-1.37355 1.137216,-0.59118 1.260243,-0.62012 2.351411,-0.55296 1.024374,0.063 1.403913,0.19273 3.44,1.17544 2.221443,1.07217 2.323797,1.10429 3.48859,1.09474 1.03003,-0.008 1.435682,-0.10593 2.863937,-0.68825 1.882691,-0.76761 3.275234,-0.98319 4.270725,-0.66116 0.343936,0.11126 1.286959,0.59487 2.095608,1.07468 2.143641,1.27193 3.121952,1.63624 4.406077,1.64077 1.278681,0.005 2.227717,-0.32145 5.003653,-1.7186 2.229092,-1.12192 2.843013,-1.31549 4.176125,-1.31671 1.210454,-0.001 1.522597,0.10158 4.303876,1.41576 2.163909,1.02247 2.281354,1.05811 3.457413,1.04938 1.07598,-0.008 1.3548,-0.0781 2.4,-0.60321 0.650423,-0.3268 1.754727,-0.95265 2.454009,-1.39079 2.433324,-1.52461 3.544654,-1.51016 6.721644,0.0874 2.83012,1.42316 3.49183,1.4987 5.68693,0.64926 3.51336,-1.35955 4.37554,-1.3719 6.53137,-0.0936 2.50417,1.48491 3.34755,1.83171 4.61654,1.89834 1.41792,0.0745 2.15555,-0.15259 4.8521,-1.49348 2.74977,-1.36736 3.43976,-1.57502 4.94391,-1.48795 1.10818,0.0642 1.43671,0.17192 3.46026,1.13504 2.71716,1.29324 3.54583,1.51139 4.79118,1.26129 1.1344,-0.22782 1.72995,-0.50909 3.5165,-1.66078 2.8466,-1.83505 3.91809,-1.86544 7.26431,-0.20602 3.07359,1.52422 3.41093,1.53926 6.6277,0.29551 1.59755,-0.61769 2.94379,-0.8118 3.87757,-0.55911 0.35278,0.0955 1.39295,0.61791 2.31149,1.16098 2.03794,1.2049 3.0651,1.58104 4.31749,1.58104 1.21096,0 1.9845,-0.26136 4.5563,-1.53948 2.63226,-1.30817 3.49135,-1.56069 4.98373,-1.46492 1.01633,0.0652 1.42377,0.20198 3.37555,1.13301 1.22083,0.58236 2.60151,1.14072 3.06817,1.2408 1.42629,0.30588 2.92333,-0.10908 4.78415,-1.32611 1.86562,-1.22018 3.02265,-1.72318 3.96169,-1.72228 1.1483,10e-4 1.82988,0.22477 4.06487,1.33394 1.91984,0.95276 2.0247,0.98472 3.2,0.9752 1.04792,-0.008 1.4441,-0.10319 2.87907,-0.68825 1.87594,-0.76486 3.27191,-0.98213 4.27072,-0.66472 0.34394,0.10929 1.13876,0.51441 1.76628,0.90025 2.0723,1.2742 3.21377,1.7292 4.50858,1.79713 1.40954,0.074 2.20702,-0.18303 5.15048,-1.65977 2.31302,-1.16045 2.91733,-1.35268 4.25612,-1.35391 1.21046,-10e-4 1.5226,0.10158 4.30388,1.41576 2.16083,1.02101 2.28281,1.0581 3.45123,1.04943 1.39927,-0.0104 2.40088,-0.40758 4.51046,-1.78861 2.64295,-1.73021 3.80498,-1.74916 7.09938,-0.11578 3.19707,1.58513 3.23382,1.58504 7.47243,-0.0175 0.87994,-0.33268 2.32192,-0.44812 3.06974,-0.24575 0.35378,0.0957 1.36178,0.60812 2.24,1.13863 2.05712,1.24265 3.02303,1.6029 4.29771,1.6029 1.24127,0 2.17248,-0.31209 4.67197,-1.56579 2.48628,-1.24708 3.4699,-1.53408 4.93535,-1.44003 0.98544,0.0632 1.42701,0.21107 3.3771,1.13063 1.23389,0.58184 2.60145,1.13869 3.03903,1.23746 1.50264,0.33916 2.81145,-0.045 5.01404,-1.47189 2.06997,-1.34093 2.85558,-1.62379 4.24125,-1.52706 0.93027,0.0649 1.37773,0.21512 2.9044,0.97476 0.9926,0.49389 1.99174,0.96909 2.22031,1.05599 0.36419,0.13847 0.4156,0.2489 0.4156,0.89275 0,0.68692 -0.0234,0.7278 -0.36,0.62799 -0.198,-0.0587 -1.0842,-0.48955 -1.96934,-0.9574 -0.88514,-0.46785 -2.02521,-0.97154 -2.53349,-1.1193 -1.4617,-0.42493 -2.09367,-0.22248 -4.7497,1.52157 -1.59319,1.04614 -2.1219,1.2459 -3.66747,1.38565 -1.37344,0.12418 -2.66645,-0.2148 -4.63557,-1.21529 -3.35781,-1.70608 -4.05263,-1.69372 -7.73378,0.13754 -2.54578,1.26645 -4.03432,1.76523 -5.28244,1.77006 -0.9707,0.004 -2.89559,-0.72899 -4.72682,-1.79935 -1.47261,-0.86075 -1.81454,-0.99542 -2.66476,-1.04956 -0.84648,-0.0539 -1.19713,0.0246 -2.65349,0.594 -1.98534,0.77623 -3.26076,1.04064 -4.31823,0.8952 -0.47442,-0.0652 -1.53624,-0.4985 -2.7532,-1.12338 -3.38917,-1.74024 -3.99802,-1.73066 -6.74961,0.10628 -3.34788,2.23502 -4.99595,2.29411 -9.1221,0.32705 -2.15735,-1.02848 -2.2851,-1.06788 -3.4622,-1.06788 -1.19989,0 -1.26417,0.0212 -3.52,1.16224 -5.18844,2.62435 -6.04854,2.60374 -11.23024,-0.26908 -1.20958,-0.67061 -1.28898,-0.69141 -2.32,-0.60783 -0.69704,0.0565 -1.53958,0.28158 -2.42756,0.6485 -1.66782,0.68916 -3.09989,0.98151 -4.08455,0.83385 -0.42555,-0.0638 -1.64708,-0.57685 -2.87545,-1.20768 -3.19946,-1.64307 -3.81102,-1.64039 -6.34624,0.0279 -2.02635,1.33339 -2.94655,1.7317 -4.25394,1.84131 -1.55252,0.13016 -2.52934,-0.12974 -5.07982,-1.35152 -2.15351,-1.03162 -2.28695,-1.07315 -3.45579,-1.07536 -1.19369,-0.002 -1.26055,0.0198 -3.68,1.21478 -3.21412,1.58745 -3.91429,1.81855 -5.50421,1.81678 -1.50413,-0.002 -2.33866,-0.30234 -4.90055,-1.76559 -1.41547,-0.80847 -1.77602,-0.94562 -2.62857,-0.99991 -0.86492,-0.0551 -1.19005,0.0181 -2.60825,0.5871 -1.87098,0.75064 -3.31578,1.0549 -4.30493,0.90656 -0.38231,-0.0573 -1.6092,-0.56007 -2.72641,-1.11721 -3.58218,-1.78636 -4.01732,-1.76869 -7.0669,0.28703 -2.9507,1.98908 -4.98386,2.03324 -8.72439,0.18952 -3.27469,-1.6141 -3.82425,-1.59711 -7.50027,0.23195 -2.80038,1.39336 -4.29515,1.85028 -5.61974,1.71784 -1.10229,-0.11021 -2.44194,-0.60665 -3.80764,-1.41101 -2.28131,-1.34363 -2.61921,-1.46715 -3.78013,-1.38183 -0.71694,0.0527 -1.40911,0.24036 -2.17223,0.58896 -0.616,0.2814 -1.624,0.61982 -2.24,0.75206 -1.71748,0.36868 -2.51134,0.20574 -4.7891,-0.98301 -1.06983,-0.55833 -2.28116,-1.09976 -2.69185,-1.20318 -1.11974,-0.28195 -2.1191,0.0204 -3.813445,1.15372 -1.842753,1.2326 -2.911411,1.70939 -4.112786,1.83496 -1.515162,0.15836 -2.742397,-0.15823 -5.232815,-1.34994 -2.158603,-1.03293 -2.284331,-1.07188 -3.459945,-1.07188 -1.20003,0 -1.260103,0.02 -3.68,1.22707 -3.165108,1.57874 -3.886677,1.81423 -5.500056,1.795 -1.553252,-0.0185 -2.119149,-0.21702 -4.64,-1.62766 -1.859756,-1.0407 -1.955143,-1.07441 -3.04,-1.07441 -0.919085,0 -1.378788,0.10487 -2.562607,0.58459 -1.76897,0.71685 -3.180227,1.01031 -4.155347,0.86408 -0.414755,-0.0622 -1.720775,-0.60918 -3.006818,-1.25931 -2.084432,-1.05374 -2.353512,-1.14876 -3.234404,-1.14213 -1.079476,0.008 -1.679666,0.26857 -3.539659,1.53601 -1.548057,1.05488 -2.435428,1.41981 -3.7129,1.52691 -1.541023,0.12919 -2.524932,-0.13382 -5.068266,-1.35479 -2.194797,-1.05366 -2.265831,-1.07528 -3.52,-1.07138 -1.275938,0.004 -1.287722,0.008 -3.713016,1.2375 -3.534447,1.79195 -5.006474,2.13711 -6.920376,1.62273 z"
       id="path1" />
  </g>
</svg>
