<?xml version="1.0" encoding="UTF-8" standalone="no"?>
<!-- Created with Inkscape (http://www.inkscape.org/) -->

<svg
   version="1.1"
   id="svg1"
   width="7.0067749"
   height="6.2128525"
   viewBox="0 0 7.0067749 6.2128524"
   xmlns="http://www.w3.org/2000/svg"
   xmlns:svg="http://www.w3.org/2000/svg">
  <defs
     id="defs1" />
  <g
     id="g1"
     transform="translate(-233.47887,-64.502694)">
    <path
       style="fill:#000000"
       d="m 235.12001,70.56573 c -1.34269,-0.562206 -2.05835,-2.648728 -1.38309,-4.032427 0.40626,-0.832468 1.10504,-1.335419 2.42706,-1.746877 1.89071,-0.588455 3.52645,-0.241981 4.04817,0.85746 0.63196,1.33176 0.13444,3.109098 -1.1392,4.069715 -1.10413,0.832763 -3.01527,1.244745 -3.95294,0.852129 z m 2.62639,-2.17798 c 0.21746,-0.863608 0.006,-1.872232 -0.50859,-2.427747 -0.43673,-0.471315 -0.72949,-0.455303 -0.92176,0.05042 -0.34727,0.913384 -0.063,2.416824 0.59435,3.143163 0.34849,0.385083 0.60548,0.149669 0.836,-0.765832 z"
       id="path30" />
  </g>
</svg>
