<?xml version="1.0" encoding="UTF-8" standalone="no"?>
<!-- Created with Inkscape (http://www.inkscape.org/) -->

<svg
   version="1.1"
   id="svg1"
   width="6.8227692"
   height="5.8315887"
   viewBox="0 0 6.8227691 5.8315887"
   xmlns="http://www.w3.org/2000/svg"
   xmlns:svg="http://www.w3.org/2000/svg">
  <defs
     id="defs1" />
  <g
     id="g1"
     transform="translate(-232.99625,-23.6161)">
    <path
       style="fill:#000000"
       d="m 234.43738,29.093029 c -1.25544,-0.608786 -1.7414,-1.795519 -1.25586,-3.06687 0.57161,-1.496751 2.02121,-2.421321 3.77849,-2.409956 1.75329,0.01134 2.72554,0.763413 2.84472,2.200492 0.0829,0.999303 -0.18889,1.699479 -0.97214,2.504683 -1.09336,1.124015 -2.98404,1.455955 -4.39521,0.771651 z m 2.43967,-1.992929 c 0.16811,-0.168109 0.24278,-0.464777 0.21143,-0.84 -0.0381,-0.456369 -0.12316,-0.590729 -0.39863,-0.629938 -0.43954,-0.06256 -1.00984,0.489666 -1.00984,0.977839 0,0.709387 0.69432,0.99482 1.19704,0.492099 z"
       id="path42" />
  </g>
</svg>
