<?xml version="1.0" encoding="UTF-8" standalone="no"?>
<!-- Created with Inkscape (http://www.inkscape.org/) -->

<svg
   version="1.1"
   id="svg1"
   width="13.279999"
   height="12.157425"
   viewBox="0 0 13.279999 12.157425"
   xmlns="http://www.w3.org/2000/svg"
   xmlns:svg="http://www.w3.org/2000/svg">
  <defs
     id="defs1" />
  <g
     id="g1"
     transform="translate(-184.16,-41.439082)">
    <path
       style="fill:#000000"
       d="m 188.69682,52.760002 c -1.80332,-1.918429 -4.53681,-6.0001 -4.53681,-6.774411 0,-0.261486 0.16734,-0.417799 0.65701,-0.613728 0.73548,-0.294281 1.77902,-0.383749 1.85397,-0.15895 0.29201,0.875867 3.13962,5.193133 3.48902,5.289703 0.088,0.02432 0.71294,-1.086816 1.38877,-2.469196 1.49188,-3.051613 3.09838,-5.741574 3.68459,-6.169582 0.47961,-0.350169 2.20664,-0.582087 2.20664,-0.296322 0,0.09193 -0.34905,0.730842 -0.77566,1.419813 -1.18109,1.907452 -2.77171,5.011473 -3.79852,7.412673 -0.50802,1.188 -1.00066,2.261411 -1.09475,2.385357 -0.24016,0.316364 -1.36983,0.80693 -1.86786,0.811129 -0.29835,0.0025 -0.64118,-0.235196 -1.2064,-0.836486 z"
       id="path34" />
  </g>
</svg>
