<?xml version="1.0" encoding="UTF-8" standalone="no"?>
<!-- Created with Inkscape (http://www.inkscape.org/) -->

<svg
   version="1.1"
   id="svg1"
   width="14.97554"
   height="12.059181"
   viewBox="0 0 14.97554 12.059181"
   xmlns="http://www.w3.org/2000/svg"
   xmlns:svg="http://www.w3.org/2000/svg">
  <defs
     id="defs1" />
  <g
     id="g1"
     transform="translate(-184.97139,-62.6047)">
    <path
       style="fill:#000000"
       d="m 189.08931,74.531186 c -0.14889,-0.116151 -0.49122,-0.771897 -0.76074,-1.457214 -0.84256,-2.142376 -1.63835,-3.549959 -3.28774,-5.81534 -0.3926,-0.539211 0.96621,-1.447964 1.90244,-1.272327 0.43173,0.081 0.69269,0.327438 1.4152,1.336502 0.48723,0.680458 1.19026,1.849196 1.5623,2.597196 0.37204,0.748 0.71052,1.396 0.75218,1.44 0.0417,0.044 0.23129,-0.107849 0.4214,-0.337442 0.19011,-0.229592 1.11477,-1.309592 2.05479,-2.4 0.94003,-1.090407 2.25601,-2.702558 2.92442,-3.582558 0.6684,-0.88 1.36268,-1.759749 1.54284,-1.954998 0.6052,-0.65588 2.06853,-0.635298 2.32487,0.0327 0.10852,0.282821 -1.34878,2.289474 -3.78126,5.206648 -2.47534,2.968564 -5.00155,5.845232 -5.31301,6.050079 -0.45813,0.301301 -1.4581,0.39048 -1.75769,0.156754 z"
       id="path28" />
  </g>
</svg>
