<?xml version="1.0" encoding="UTF-8" standalone="no"?>
<!-- Created with Inkscape (http://www.inkscape.org/) -->

<svg
   version="1.1"
   id="svg1"
   width="13.279999"
   height="12.761389"
   viewBox="0 0 13.279999 12.761389"
   xmlns="http://www.w3.org/2000/svg"
   xmlns:svg="http://www.w3.org/2000/svg">
  <defs
     id="defs1" />
  <g
     id="g1"
     transform="translate(-183.52001,-20.81046)">
    <path
       style="fill:#000000"
       d="m 187.83883,33.278824 c -0.32,-0.319998 -0.77453,-1.223792 -2.44882,-4.869268 -0.2805,-0.610745 -0.816,-1.528947 -1.19,-2.040449 -0.374,-0.511503 -0.68,-1.000143 -0.68,-1.085867 0,-0.455926 1.70595,-1.028672 2.35205,-0.789663 0.46949,0.173675 1.67535,2.064702 2.43825,3.823647 0.36105,0.832442 0.71394,1.571022 0.78421,1.64129 0.0703,0.07027 0.51448,-0.78353 0.98714,-1.897328 1.14139,-2.689622 2.23621,-4.496813 3.60781,-5.955321 l 1.12945,-1.201027 0.99055,-0.07165 c 0.716,-0.05179 0.99054,-0.01711 0.99054,0.125148 0,0.108238 -0.37186,0.602892 -0.82636,1.09923 -1.43215,1.564 -2.23533,2.996791 -3.73741,6.667169 -1.74479,4.263426 -1.96953,4.579289 -3.42381,4.811837 -0.50519,0.08078 -0.68183,0.03402 -0.9736,-0.257748 z"
       id="path39" />
  </g>
</svg>
