<?xml version="1.0" encoding="UTF-8" standalone="no"?>
<!-- Created with Inkscape (http://www.inkscape.org/) -->

<svg
   version="1.1"
   id="svg1"
   width="13.760986"
   height="11.304775"
   viewBox="0 0 13.760986 11.304775"
   xmlns="http://www.w3.org/2000/svg"
   xmlns:svg="http://www.w3.org/2000/svg">
  <defs
     id="defs1" />
  <g
     id="g1"
     transform="translate(-274.1005,-20.039601)">
    <path
       style="fill:#000000"
       d="m 279.93898,31.230693 c -0.133,-0.215202 -0.21622,-1.080066 -0.34641,-3.600124 l -0.10587,-2.049432 -0.90334,0.105866 c -0.49684,0.05823 -1.65124,0.246979 -2.56533,0.419449 -1.18023,0.222684 -1.7116,0.263968 -1.83315,0.142423 -0.32646,-0.326463 0.29653,-0.657737 1.82772,-0.971895 0.82907,-0.170104 1.92871,-0.357138 2.44364,-0.415632 l 0.93623,-0.106353 -0.11174,-1.043441 c -0.0615,-0.573893 -0.21455,-1.438127 -0.3402,-1.92052 -0.27602,-1.059722 -0.11877,-1.323543 0.97073,-1.628583 1.37978,-0.386313 1.69994,0.04087 2.02195,2.69778 l 0.20076,1.65646 2.85015,-0.05835 c 1.82134,-0.03728 2.85973,-5.91e-4 2.8767,0.101655 0.0146,0.088 -0.21809,0.304 -0.51712,0.48 -0.46023,0.27088 -0.89575,0.328487 -2.83725,0.375291 l -2.29356,0.05529 0.11419,2.607499 0.1142,2.607499 -0.42973,0.281571 c -0.50076,0.328114 -1.92105,0.508712 -2.07257,0.263541 z"
       id="path41" />
  </g>
</svg>
