<?xml version="1.0" encoding="UTF-8" standalone="no"?>
<!-- Created with Inkscape (http://www.inkscape.org/) -->

<svg
   version="1.1"
   id="svg1"
   width="16.142334"
   height="13.121796"
   viewBox="0 0 16.142334 13.121796"
   xmlns="http://www.w3.org/2000/svg"
   xmlns:svg="http://www.w3.org/2000/svg">
  <defs
     id="defs1" />
  <g
     id="g1"
     transform="translate(-274.56,-40.321185)">
    <path
       style="fill:#000000"
       d="m 280.99201,53.248006 c -0.11954,-0.119537 -0.19909,-0.768687 -0.21079,-1.72 -0.0103,-0.8404 -0.0643,-2.243532 -0.12,-3.11807 l -0.10121,-1.59007 -1.04,0.0372 c -0.572,0.02046 -1.738,0.150802 -2.59112,0.289645 -1.82462,0.296957 -2.36888,0.219268 -2.36888,-0.338143 0,-0.84115 0.9607,-1.202502 4.08,-1.534621 0.968,-0.103065 1.79109,-0.216953 1.82909,-0.253085 0.038,-0.03613 -0.0532,-0.883638 -0.20263,-1.883348 -0.14944,-0.99971 -0.23227,-1.920432 -0.18407,-2.046049 0.22152,-0.577259 1.71697,-0.995469 2.28053,-0.637762 0.29304,0.185996 0.46097,0.888728 0.68843,2.88077 l 0.20092,1.759724 0.49387,0.08584 c 0.27162,0.04722 1.84411,0.135266 3.49442,0.195671 3.23821,0.118525 3.59757,0.211846 3.42735,0.89005 -0.21346,0.85051 -1.4465,1.003289 -5.72115,0.708877 l -1.58676,-0.109286 v 2.955713 2.955712 l -0.42158,0.331613 c -0.47347,0.372434 -1.6306,0.455433 -1.94642,0.139613 z"
       id="path36" />
  </g>
</svg>
