<?xml version="1.0" encoding="UTF-8" standalone="no"?>
<!-- Created with Inkscape (http://www.inkscape.org/) -->

<svg
   version="1.1"
   id="svg1"
   width="14.413544"
   height="11.796104"
   viewBox="0 0 14.413544 11.796104"
   xmlns="http://www.w3.org/2000/svg"
   xmlns:svg="http://www.w3.org/2000/svg">
  <defs
     id="defs1" />
  <g
     id="g1"
     transform="translate(-275.4334,-62.214655)">
    <path
       style="fill:#000000"
       d="m 281.12001,73.965088 c -0.44523,-0.172652 -0.48607,-0.438352 -0.46069,-2.997649 0.0156,-1.574802 -0.0357,-2.572902 -0.13397,-2.605658 -0.0876,-0.0292 -1.08007,0.08771 -2.20548,0.259796 -1.27468,0.194917 -2.18005,0.261999 -2.4012,0.177915 -0.72852,-0.276981 -0.61808,-1.079081 0.20608,-1.496764 0.2394,-0.121323 1.33526,-0.348593 2.43526,-0.505045 1.1,-0.156452 2.06348,-0.341016 2.14108,-0.410144 0.0809,-0.07211 0.0549,-0.658931 -0.061,-1.376611 -0.39354,-2.436748 -0.41333,-2.210234 0.21928,-2.510427 0.6825,-0.323868 1.60014,-0.383052 1.91303,-0.123382 0.23028,0.191116 0.48824,1.304575 0.67252,2.902884 l 0.10146,0.88 2.50679,-0.04924 c 1.37874,-0.02708 2.73993,-0.006 3.02486,0.04689 0.62458,0.115897 0.92974,0.57935 0.6839,1.038692 -0.32991,0.61644 -0.77843,0.708177 -3.56057,0.728239 -1.47324,0.01062 -2.72527,0.06597 -2.78229,0.122999 -0.057,0.05703 -0.11252,1.239651 -0.12332,2.628056 -0.0108,1.388405 -0.0798,2.618814 -0.15325,2.734242 -0.23243,0.365089 -1.56762,0.731619 -2.02253,0.555216 z"
       id="path29" />
  </g>
</svg>
