<?xml version="1.0" encoding="UTF-8" standalone="no"?>
<!-- Created with Inkscape (http://www.inkscape.org/) -->

<svg
   version="1.1"
   id="svg1"
   width="12.813553"
   height="12.147447"
   viewBox="0 0 12.813553 12.147447"
   xmlns="http://www.w3.org/2000/svg"
   xmlns:svg="http://www.w3.org/2000/svg">
  <defs
     id="defs1" />
  <g
     id="g1"
     transform="translate(-207.68001,-20.8)">
    <path
       style="fill:#000000"
       d="m 207.93144,32.708573 c -0.13829,-0.138286 -0.25143,-0.347216 -0.25143,-0.464288 0,-0.333954 2.09643,-2.961996 3.70536,-4.644973 l 1.46153,-1.528778 -0.38345,-0.417958 c -0.6989,-0.761814 -2.19119,-1.767754 -2.95475,-1.991765 -0.43622,-0.127982 -0.85455,-0.376004 -0.99506,-0.589968 -0.22133,-0.337021 -0.21451,-0.406667 0.0783,-0.800001 0.17641,-0.236962 0.51306,-0.499328 0.74811,-0.583033 0.87434,-0.311364 2.96346,0.548012 4.48171,1.843582 l 0.92802,0.791913 0.58511,-0.468811 c 0.32181,-0.257847 0.94511,-0.842958 1.38511,-1.300247 1.26308,-1.312713 1.94567,-1.754245 2.712,-1.754245 0.3652,0 0.7504,0.0864 0.856,0.192 0.48927,0.489268 0.20767,0.898855 -1.97357,2.870609 -1.19106,1.076672 -2.13243,2.043939 -2.09193,2.149481 0.15497,0.403846 2.19144,2.907291 3.04436,3.742445 1.08955,1.066859 1.18362,1.593057 0.37314,2.087219 -0.286,0.174378 -0.75709,0.317319 -1.04686,0.317648 -0.64966,7.38e-4 -1.59121,-0.837331 -3.25983,-2.901577 -0.63036,-0.779804 -1.20115,-1.417825 -1.26843,-1.417825 -0.18306,0 -2.18525,2.267769 -3.15581,3.57441 -0.46802,0.630075 -1.00802,1.233039 -1.2,1.339921 -0.49699,0.276677 -1.48052,0.251359 -1.77764,-0.04576 z"
       id="path40" />
  </g>
</svg>
