<?xml version="1.0" encoding="UTF-8" standalone="no"?>
<!-- Created with Inkscape (http://www.inkscape.org/) -->

<svg
   version="1.1"
   id="svg1"
   width="13.689804"
   height="12.753307"
   viewBox="0 0 13.689804 12.753307"
   xmlns="http://www.w3.org/2000/svg"
   xmlns:svg="http://www.w3.org/2000/svg">
  <defs
     id="defs1" />
  <g
     id="g1"
     transform="translate(-208.34578,-40.671544)">
    <path
       style="fill:#000000"
       d="m 209.24001,53.267186 c -0.154,-0.0897 -0.28,-0.251428 -0.28,-0.359404 0,-0.239671 1.64391,-2.340846 3.54796,-4.534846 0.77662,-0.894887 1.41204,-1.689154 1.41204,-1.765039 0,-0.23309 -2.31583,-1.935753 -3.96094,-2.912188 -0.85748,-0.508952 -1.5821,-1.04346 -1.61027,-1.187794 -0.0282,-0.144335 0.14436,-0.443661 0.38337,-0.66517 0.33409,-0.309628 0.60565,-0.402743 1.17455,-0.402743 0.83481,0 2.36534,0.806373 4.45174,2.345446 0.63715,0.470005 1.21315,0.853309 1.28,0.851788 0.0668,-0.0015 0.68316,-0.749631 1.36957,-1.662466 1.57586,-2.095664 1.70483,-2.207711 2.63036,-2.28518 0.96685,-0.08093 1.28769,0.10772 1.05265,0.618954 -0.2123,0.461784 -1.31448,1.926521 -2.59526,3.448959 l -0.97377,1.157502 2.39463,2.422691 c 1.31704,1.33248 2.43854,2.56106 2.49221,2.730177 0.12279,0.386862 -0.18061,0.759735 -0.8437,1.036914 -1.06837,0.446587 -1.19667,0.372702 -3.53738,-2.037239 l -2.18776,-2.252454 -1.37037,1.652454 c -0.7537,0.90885 -1.70974,2.099632 -2.12453,2.646183 -0.57341,0.755571 -0.89687,1.033364 -1.34963,1.159108 -0.73512,0.204163 -0.99712,0.203071 -1.35547,-0.0057 z"
       id="path35" />
  </g>
</svg>
