<?xml version="1.0" encoding="UTF-8" standalone="no"?>
<!-- Created with Inkscape (http://www.inkscape.org/) -->

<svg
   version="1.1"
   id="svg1"
   width="14.584671"
   height="12.615295"
   viewBox="0 0 14.584671 12.615295"
   xmlns="http://www.w3.org/2000/svg"
   xmlns:svg="http://www.w3.org/2000/svg">
  <defs
     id="defs1" />
  <g
     id="g1"
     transform="translate(-207.94652,-62.900599)">
    <path
       style="fill:#000000"
       d="m 208.01403,75.372052 c -0.46973,-0.297346 1.57658,-3.073317 4.11593,-5.583558 l 1.83252,-1.811508 -0.62124,-0.648987 c -0.85158,-0.889623 -2.35765,-1.848946 -3.36034,-2.140436 -0.45875,-0.133361 -0.9227,-0.349251 -1.03101,-0.479756 -0.29637,-0.357103 0.0523,-0.976812 0.73201,-1.300931 0.48829,-0.232846 0.67324,-0.243398 1.32288,-0.07547 1.24513,0.321848 2.93626,1.236991 3.93453,2.129145 1.09528,0.978861 0.75824,1.068848 3.37298,-0.900543 0.9347,-0.704 1.93081,-1.364523 2.21359,-1.467828 0.70103,-0.256109 1.31909,-0.255377 1.53254,0.0018 0.23335,0.281174 0.2796,0.241629 -4.90254,4.191749 -0.34863,0.265742 2.4903,3.488811 4.90107,5.564241 0.28747,0.247486 0.49977,0.568954 0.47176,0.714373 -0.0765,0.397394 -1.06698,0.995651 -1.64836,0.995651 -0.85506,0 -2.34607,-1.279581 -4.57431,-3.925651 -0.62727,-0.744892 -1.19558,-1.354349 -1.26292,-1.354349 -0.36878,0 -2.86332,2.949627 -4.5808,5.416479 -0.45834,0.658334 -1.86316,1.045971 -2.44829,0.67557 z"
       id="path27" />
  </g>
</svg>
