<?xml version="1.0" encoding="UTF-8" standalone="no"?>
<!-- Created with Inkscape (http://www.inkscape.org/) -->

<svg
   version="1.1"
   id="svg1"
   width="101.73691"
   height="11.143158"
   viewBox="0 0 101.73691 11.143158"
   sodipodi:docname="highlight-1.svg"
   inkscape:version="1.4 (86a8ad7, 2024-10-11)"
   xmlns:inkscape="http://www.inkscape.org/namespaces/inkscape"
   xmlns:sodipodi="http://sodipodi.sourceforge.net/DTD/sodipodi-0.dtd"
   xmlns="http://www.w3.org/2000/svg"
   xmlns:svg="http://www.w3.org/2000/svg">
  <sodipodi:namedview
     id="namedview1"
     pagecolor="#505050"
     bordercolor="#eeeeee"
     borderopacity="1"
     inkscape:showpageshadow="0"
     inkscape:pageopacity="0"
     inkscape:pagecheckerboard="0"
     inkscape:deskcolor="#505050"
     inkscape:zoom="11.559227"
     inkscape:cx="50.825198"
     inkscape:cy="5.579958"
     inkscape:window-width="1920"
     inkscape:window-height="1129"
     inkscape:window-x="1912"
     inkscape:window-y="-8"
     inkscape:window-maximized="1"
     inkscape:current-layer="svg1" />
  <defs
     id="defs1" />
  <g
     id="g1"
     transform="translate(-185.43999,-141.31979)">
    <path
       style="fill:#44acff;fill-opacity:0.19952494"
       d="m 186.47306,152.25536 c -0.70537,-0.30726 -1.03305,-0.69425 -1.03305,-1.22004 0,-0.37598 0.12968,-0.53782 0.69761,-0.87065 0.92602,-0.54269 1.89413,-0.86085 3.06215,-1.00638 0.68938,-0.0859 0.96076,-0.18701 0.96328,-0.35893 0.0118,-0.80489 0.95883,-1.59935 1.90647,-1.59935 0.28486,0 0.47449,-0.13966 0.64971,-0.4785 0.13609,-0.26317 0.42881,-0.59733 0.65048,-0.74258 0.59008,-0.38663 4.38453,-0.68148 8.89225,-0.69096 2.08008,-0.004 5.57208,-0.08 7.76,-0.16817 2.18793,-0.0881 8.92809,-0.22855 14.97814,-0.31209 6.05005,-0.0835 11.11701,-0.21734 11.25993,-0.29732 0.15949,-0.0892 -3.74896,-0.1883 -10.12009,-0.25647 -8.6294,-0.0923 -10.93309,-0.0693 -13.65993,0.13628 -4.39184,0.33118 -5.85013,0.32441 -6.55829,-0.0304 -0.71444,-0.358 -0.96872,-1.00746 -0.63062,-1.61065 0.40985,-0.73116 0.95471,-0.86861 3.98225,-1.00456 1.54366,-0.0693 3.59866,-0.20816 4.56666,-0.30853 1.07482,-0.11145 2.97463,-0.1462 4.88,-0.0893 1.716,0.0513 6.324,0.10489 10.24,0.11913 3.916,0.0142 7.948,0.0904 8.96,0.16917 1.012,0.0788 4.54,0.16014 7.84,0.18074 8.8139,0.055 11.90288,0.54405 12.25322,1.93993 0.24517,0.97681 -0.51943,1.41694 -3.51204,2.02166 -1.22134,0.24679 -2.25974,0.48784 -2.30756,0.53567 -0.0478,0.0478 3.79505,0.0875 8.53971,0.0882 6.78297,0.001 9.01851,0.0531 10.46009,0.24349 1.97598,0.26104 2.42225,0.45201 2.81044,1.20267 l 0.25051,0.48445 4.60352,-0.0942 c 4.95707,-0.10143 6.14853,0.0113 7.5218,0.71193 1.10621,0.56435 1.05305,1.63161 -0.10874,2.18292 -0.49163,0.23329 -0.90815,0.25162 -3.29684,0.1451 -4.18471,-0.18661 -8.84623,-0.17318 -13.69411,0.0395 -10.20961,0.44779 -12.6144,0.53056 -19.92,0.68558 -13.86428,0.29418 -27.67964,0.17736 -38.48,-0.32539 -7.8947,-0.3675 -13.71758,-0.49164 -14.98342,-0.31944 -0.69112,0.094 -2.30792,0.23971 -3.5929,0.32376 -1.74403,0.11408 -2.5147,0.23376 -3.04,0.47209 -0.812,0.36841 -2.07281,0.41434 -2.79063,0.10165 z"
       id="path18" />
  </g>
</svg>
