<?xml version="1.0" encoding="UTF-8" standalone="no"?>
<!-- Created with Inkscape (http://www.inkscape.org/) -->

<svg
   version="1.1"
   id="svg1"
   width="101.75003"
   height="10.947899"
   viewBox="0 0 101.75003 10.947899"
   xmlns="http://www.w3.org/2000/svg"
   xmlns:svg="http://www.w3.org/2000/svg">
  <defs
     id="defs1" />
  <g
     id="g1"
     transform="translate(-180.64002,-117.9833)">
    <path
       style="fill:#000000"
       d="m 219.72001,128.72333 c -0.66935,-0.48615 -0.4756,-0.95612 1.0976,-2.66241 0.80168,-0.8695 1.4101,-1.58092 1.35205,-1.58092 -0.27569,0 -1.10036,0.55302 -2.48965,1.66955 -2.01239,1.61729 -3.59418,2.41046 -4.80711,2.41046 -1.09236,0 -1.43289,-0.23728 -1.43289,-0.99842 0,-0.58868 0.40932,-1.07637 1.88117,-2.24131 0.36115,-0.28584 0.81647,-0.74417 1.01181,-1.01851 0.32257,-0.453 0.32683,-0.48363 0.0464,-0.33354 -0.16983,0.0909 -0.88267,0.58033 -1.58408,1.08764 -4.0761,2.94814 -5.42481,3.67202 -6.59574,3.54004 -0.75793,-0.0854 -1.31956,-0.48294 -1.31956,-0.93397 0,-0.31591 0.61439,-0.98478 2.30314,-2.50735 0.60673,-0.54702 1.03355,-0.99459 0.94849,-0.99459 -0.0851,0 -0.65347,0.3476 -1.26314,0.77245 -0.60967,0.42484 -1.64212,1.14402 -2.29432,1.59817 -1.3979,0.97339 -2.72214,1.51586 -3.34264,1.36931 -0.5448,-0.12867 -1.15153,-0.67117 -1.15153,-1.02963 0,-0.15066 0.65595,-0.89815 1.45768,-1.6611 0.80172,-0.76294 1.42802,-1.41682 1.39178,-1.45307 -0.1236,-0.1236 -1.94527,0.92335 -4.01034,2.3048 -2.85537,1.91013 -3.15033,2.07601 -3.89091,2.18821 -0.86287,0.13071 -1.78094,-0.24506 -1.91629,-0.78437 -0.117,-0.46616 0.33639,-1.58072 0.9979,-2.45313 l 0.45018,-0.5937 -0.69195,0.38721 c -0.38056,0.21296 -1.06147,0.70263 -1.51312,1.08815 -1.417,1.20953 -1.81576,1.47013 -2.75435,1.80001 -0.76091,0.26744 -1.00435,0.29066 -1.4624,0.1395 -0.30223,-0.0998 -0.66032,-0.35046 -0.79574,-0.55714 -0.25625,-0.39109 -0.26133,-0.37206 0.55124,-2.06121 0.11607,-0.24129 -1.8021,1.15561 -2.95101,2.14906 -1.17174,1.01318 -2.0833,1.37992 -3.04284,1.22421 -0.73163,-0.11873 -1.17969,-0.51827 -1.18034,-1.05252 -4.7e-4,-0.38363 -0.0543,-0.4155 -0.70747,-0.41907 -0.85211,-0.005 -1.37202,-0.40513 -1.37202,-1.05682 0,-0.34844 0.11833,-0.51081 0.52,-0.71347 0.286,-0.14431 0.7,-0.42613 0.92,-0.62626 0.22,-0.20014 1.768,-1.32317 3.44,-2.49562 1.672,-1.17246 3.54893,-2.5734 4.17095,-3.11322 1.26705,-1.09958 1.71809,-1.27604 2.63232,-1.02986 1.11644,0.30062 1.15932,1.11697 0.11553,2.19911 -0.27587,0.286 -0.46142,0.52 -0.41234,0.52 0.0491,0 0.70382,-0.288 1.45497,-0.64 1.41626,-0.66368 2.18841,-0.78356 2.91488,-0.45256 0.4882,0.22244 0.67332,0.80468 0.42742,1.34436 -0.0973,0.21351 -0.12035,0.3882 -0.0513,0.3882 0.0691,0 0.94954,-0.42698 1.95657,-0.94886 1.98347,-1.02789 3.99234,-1.77114 4.78711,-1.77114 0.27486,0 0.71216,0.10985 0.97179,0.24411 0.37494,0.19389 0.47194,0.35025 0.47146,0.76 -3.3e-4,0.28374 -0.14433,0.75164 -0.32,1.03976 -0.17567,0.28813 -0.3194,0.55055 -0.3194,0.58316 0,0.0326 0.738,-0.25342 1.64,-0.63563 2.98407,-1.26446 4.82826,-1.53021 5.65915,-0.8155 0.41435,0.3564 0.47419,0.3647 1.15435,0.16 0.39455,-0.11874 1.01191,-0.21563 1.37193,-0.2153 0.69463,6.4e-4 1.65337,0.47481 1.77994,0.88032 0.0411,0.1315 0.10723,0.34411 0.14707,0.47248 0.059,0.19023 0.25878,0.14892 1.08,-0.22335 3.25211,-1.47422 5.08756,-1.41493 5.08756,0.16434 v 0.60479 l 1.16,-0.5342 c 1.57581,-0.72569 2.38346,-0.92575 3.82282,-0.94696 1.41204,-0.0208 1.89718,0.25125 1.89718,1.0639 0,0.38786 0.0501,0.45134 0.28,0.35499 1.10412,-0.46266 2.85038,-0.92572 3.75574,-0.9959 1.22586,-0.095 1.77549,0.14356 2.09807,0.91077 l 0.18821,0.44762 1.74322,-0.71336 c 2.11388,-0.86504 3.61443,-1.20653 4.4593,-1.01485 0.82738,0.18772 1.07546,0.43418 1.07546,1.06841 0,0.29722 0.0514,0.5404 0.11427,0.5404 0.0628,0 0.67558,-0.29202 1.36163,-0.64894 1.54615,-0.8044 3.27661,-1.20435 4.07327,-0.94143 0.49208,0.1624 0.72543,0.4577 1.09588,1.38683 0.008,0.02 0.58613,-0.21307 1.28474,-0.51804 0.69862,-0.30498 1.50779,-0.55539 1.79816,-0.55646 0.79042,-0.003 1.47205,0.40555 1.47205,0.88215 0,0.21774 0.027,0.39589 0.06,0.39589 0.033,0 0.771,-0.33229 1.64,-0.73844 4.24114,-1.98218 6.93999,-2.21279 6.93999,-0.59301 0,0.32369 0.0566,0.38235 0.28,0.29024 1.38574,-0.57136 1.94808,-0.69987 2.44235,-0.55811 0.8415,0.24134 1.13902,0.60272 1.01972,1.23861 l -0.10236,0.54566 0.94014,-0.47448 c 0.51708,-0.26097 1.33122,-0.59058 1.80919,-0.73248 1.14094,-0.3387 2.86173,-0.34066 3.34266,-0.004 0.33678,0.23589 0.41709,0.22866 1.1156,-0.10045 1.41415,-0.66628 2.01357,-0.81167 3.2327,-0.78409 0.95991,0.0217 1.4401,-0.0613 2.4,-0.41478 1.57306,-0.5793 2.63587,-0.61311 3.05394,-0.0971 0.3264,0.40283 0.38303,0.77321 0.16965,1.10959 -0.0723,0.11402 -0.80923,0.43835 -1.63755,0.72073 -2.25184,0.76766 -5.06437,2.62495 -7.04744,4.65387 l -1.54616,1.58192 -0.81091,-0.0779 c -1.06084,-0.10194 -1.34839,-0.34748 -1.26127,-1.07699 0.0374,-0.31291 0.12925,-0.71293 0.20416,-0.88893 0.11446,-0.26889 0.0483,-0.24945 -0.41411,0.12175 -2.16941,1.74141 -3.17333,2.14347 -4.12427,1.65172 -0.65988,-0.34124 -0.70908,-1.12694 -0.10604,-1.69347 0.22,-0.20667 0.4,-0.43709 0.4,-0.51202 0,-0.18595 -2.31421,1.07529 -3.18626,1.73651 -0.38844,0.29453 -0.77715,0.53552 -0.86379,0.53552 -0.0866,0 -0.60292,0.22624 -1.14728,0.50277 -0.81066,0.4118 -1.09747,0.48256 -1.58513,0.39107 -0.76898,-0.14426 -1.22334,-0.59035 -1.10203,-1.08197 0.0505,-0.20453 0.34708,-0.72452 0.65913,-1.15554 0.31205,-0.43102 0.49941,-0.75395 0.41636,-0.71763 -0.32369,0.14156 -2.22735,1.37173 -3.00412,1.9413 -0.64007,0.46933 -0.96535,0.6 -1.49365,0.6 -0.85179,0 -1.59181,-0.55736 -1.42747,-1.07512 0.0587,-0.18501 0.86094,-1.06279 1.78273,-1.95063 0.92179,-0.88784 1.63197,-1.61426 1.57818,-1.61426 -0.36442,0 -2.84846,1.50909 -4.38667,2.66495 -1.85186,1.39155 -3.76875,2.45506 -4.42507,2.45506 -0.4658,0 -1.21714,-0.29084 -1.36922,-0.53001 -0.0665,-0.1045 -0.12191,-0.38293 -0.12326,-0.61873 l -0.002,-0.42874 -1.48,0.78567 c -0.84469,0.4484 -1.69396,0.78698 -1.97842,0.78873 -0.90861,0.006 -1.64038,-0.9122 -1.21913,-1.52906 0.0647,-0.0947 0.37069,-0.34668 0.68008,-0.56 0.69256,-0.47752 2.3207,-2.19797 2.19705,-2.32161 -0.0496,-0.0496 -1.40644,0.78927 -3.0152,1.86418 -1.60875,1.07491 -3.22731,2.0881 -3.59681,2.25155 -1.09576,0.48471 -2.30757,0.0761 -2.30757,-0.77811 0,-0.42189 1.03962,-1.96395 2.17665,-3.2286 l 0.72021,-0.80104 -1.88843,0.88896 c -1.03864,0.48894 -2.751,1.46976 -3.80524,2.17961 -2.51253,1.69176 -3.73069,2.2535 -4.90934,2.26388 -0.96654,0.009 -1.57385,-0.3268 -1.57385,-0.86896 0,-0.52962 1.28875,-1.75818 2.46124,-2.34628 1.0584,-0.53087 2.70178,-1.81145 2.32467,-1.81145 -0.22696,0 -0.67802,0.24635 -1.90591,1.0409 -0.572,0.37013 -1.39199,0.82772 -1.8222,1.01686 -0.43021,0.18914 -1.47421,0.83892 -2.32,1.44396 -0.84579,0.60504 -1.85968,1.26224 -2.2531,1.46044 -0.94501,0.47609 -2.50848,0.60159 -3.0047,0.24117 z"
       id="path22" />
  </g>
</svg>
