<?xml version="1.0" encoding="UTF-8" standalone="no"?>
<!-- Created with Inkscape (http://www.inkscape.org/) -->

<svg
   version="1.1"
   id="svg1"
   width="106.23392"
   height="10.132767"
   viewBox="0 0 106.23392 10.132767"
   xmlns="http://www.w3.org/2000/svg"
   xmlns:svg="http://www.w3.org/2000/svg">
  <defs
     id="defs1" />
  <g
     id="g1"
     transform="translate(-183.35647,-166.62656)">
    <path
       style="fill:#000000"
       d="m 213.58459,176.64085 c -31.21631,-0.085 -30.22458,-0.0608 -30.22458,-0.73675 0,-0.4591 0.71815,-0.67005 2.64,-0.77547 1.99885,-0.10965 4.91968,-0.39497 5.01456,-0.48986 0.0301,-0.0301 -0.29383,-0.0981 -0.7199,-0.15113 -3.89118,-0.48407 -4.85466,-0.85457 -4.85466,-1.8668 0,-0.58342 0.41043,-0.79925 1.71974,-0.90435 0.96041,-0.0771 1.018,-0.10402 0.93446,-0.43686 -0.10018,-0.39915 0.24542,-0.78075 0.83797,-0.92526 0.20469,-0.0499 2.04069,0.0107 4.08,0.1348 4.01419,0.24422 15.70103,0.29732 14.93643,0.0679 -0.24827,-0.0745 -3.66827,-0.17982 -7.6,-0.23405 -3.93173,-0.0542 -7.7606,-0.16818 -8.5086,-0.25321 -1.7585,-0.1999 -3.28589,-0.60268 -3.59948,-0.9492 -0.55808,-0.61667 0.37661,-1.23299 1.61294,-1.06354 0.65285,0.0895 0.76254,0.0558 1.1025,-0.33883 l 0.37751,-0.4382 5.41327,-0.002 c 2.97729,-9.6e-4 7.17726,-0.0967 9.33326,-0.21279 3.08576,-0.16613 9.79369,-0.19179 31.52,-0.12055 15.18,0.0498 28.464,0.13506 29.52,0.18953 1.056,0.0545 3.144,0.0207 4.64,-0.0751 9.28062,-0.59403 10.77253,-0.58474 12.94734,0.0806 1.19054,0.36424 1.53266,0.56022 1.53266,0.87794 0,0.41813 -0.54849,0.73589 -2.16,1.25136 -1.41199,0.45164 -4.99651,1.13068 -5.96868,1.13068 -0.27084,0 -0.54067,0.078 -0.59963,0.17344 -0.0764,0.12361 1.33583,0.15809 4.91541,0.12 4.63312,-0.0493 5.05711,-0.031 5.46754,0.23666 0.86579,0.5645 0.39725,0.99144 -1.81464,1.65354 l -1.2,0.35921 1.04,0.0137 c 1.18057,0.0155 1.65329,0.26415 1.57283,0.82729 -0.0571,0.39949 -0.28618,0.49997 -1.73283,0.75995 -0.69976,0.12576 -0.43534,0.1413 1.291,0.0759 2.39775,-0.0909 2.62035,-0.0161 2.52056,0.847 -0.0909,0.78625 -0.51517,0.87311 -3.73156,0.7639 -1.584,-0.0538 -3.132,-0.12624 -3.44,-0.16101 -0.91531,-0.10333 -9.16584,-0.0813 -9.6,0.0257 -0.22,0.0542 -3.316,0.15995 -6.88,0.23502 -3.564,0.0751 -7.38,0.20929 -8.48,0.29825 -1.1,0.089 -4.736,0.14634 -8.08,0.1275 -3.344,-0.0188 -19.44294,-0.0706 -35.77542,-0.1151 z m 56.58506,-3.35874 c 0.35731,-0.0825 2.09467,-0.3007 3.8608,-0.48479 3.88338,-0.40479 4.9821,-0.67567 2.22684,-0.54901 -1.04649,0.0481 -2.19849,0.12971 -2.56,0.18136 -0.3615,0.0516 -2.00022,0.10209 -3.6416,0.11211 -2.85793,0.0175 -3.00503,0.003 -3.47352,-0.34177 -0.46749,-0.34403 -0.62616,-0.35998 -3.57568,-0.35958 -2.96767,4e-4 -9.61286,0.17222 -9.52771,0.24634 0.0227,0.0197 1.15723,0.12323 2.52123,0.22997 2.38667,0.18677 3.52,0.44199 3.52,0.79269 0,0.10952 1.58739,0.18098 4.68,0.21067 2.574,0.0247 4.824,0.06 5,0.0785 0.176,0.0185 0.61234,-0.034 0.96964,-0.1165 z"
       id="path14" />
  </g>
</svg>
